<?xml version="1.0" encoding="utf-8"?>
<!-- Generator: Adobe Illustrator 13.0.0, SVG Export Plug-In . SVG Version: 6.00 Build 14948)  -->
<!DOCTYPE svg PUBLIC "-//W3C//DTD SVG 1.1//EN" "http://www.w3.org/Graphics/SVG/1.1/DTD/svg11.dtd">
<svg version="1.1" id="Ebene_1" xmlns="http://www.w3.org/2000/svg" xmlns:xlink="http://www.w3.org/1999/xlink" x="0px" y="0px"
	 width="179.457px" height="54.938px" viewBox="0 0 179.457 54.938" style="enable-background:new 0 0 179.457 54.938;"
	 xml:space="preserve">
<style type="text/css">
<![CDATA[
	.st0{fill:#1A1817;stroke:#221E22;stroke-width:0.4;}
	.st1{fill:#1A1817;}
	.st2{fill:#EE7D26;}
	.st3{fill:#221E22;}
	.st4{fill:#F67534;}
	.st5{fill:#1A1817;stroke:#221E22;stroke-width:0.25;}
	.st6{fill:#1A1817;stroke:#221E22;stroke-width:0.75;}
	.st7{fill:none;stroke:#221E22;stroke-width:0.4;}
	.st8{fill:none;}
	.st9{fill:#221E22;stroke:#221E22;stroke-width:0.4;}
	.st10{fill:#221E22;stroke:#221E22;stroke-width:0.5;}
	.st11{fill:#221E22;stroke:#221E22;stroke-width:0.25;}
	.st12{fill:none;stroke:#221E22;stroke-width:0.25;}
]]>
</style>
<path class="st5" d="M31.607,28.912c0.526-3.795,0.675-7.544,0.45-11.242c-0.229-3.697-0.928-7.374-2.097-11.025
	c-0.121-0.31-0.121-0.572,0-0.788c0.12-0.214,0.285-0.34,0.502-0.375c0.213-0.034,0.428,0.035,0.643,0.216
	c0.215,0.179,0.38,0.495,0.5,0.948c0.335,1.958,0.614,3.92,0.843,5.89c0.225,1.969,0.48,3.955,0.77,5.96
	c0.595,0.478,1.222,0.585,1.878,0.323c0.656-0.263,1.319-0.741,1.986-1.432c0.667-0.694,1.319-1.521,1.951-2.487
	c0.632-0.968,1.229-1.905,1.791-2.812c0.56-0.906,1.062-1.719,1.503-2.432c0.441-0.717,0.807-1.17,1.091-1.361
	c0.526-0.382,0.79-0.412,0.79-0.091c0,0.323-0.18,0.842-0.538,1.559c-0.358,0.714-0.834,1.556-1.434,2.524
	c-0.595,0.966-1.22,1.909-1.877,2.828c-0.658,0.92-1.289,1.738-1.897,2.454c-0.61,0.714-1.093,1.19-1.452,1.432
	c-0.047,0.047-0.136,0.105-0.269,0.176c-0.13,0.073-0.268,0.156-0.411,0.252c-0.143,0.097-0.288,0.186-0.43,0.269
	c-0.144,0.084-0.237,0.138-0.287,0.162v0.285c0,0.025,0.083,0.09,0.253,0.198c0.166,0.105,0.363,0.231,0.589,0.376
	c0.225,0.143,0.461,0.288,0.698,0.431c0.238,0.141,0.43,0.262,0.574,0.357c0.451,0.239,1.008,0.561,1.663,0.965
	c0.656,0.408,1.361,0.829,2.113,1.271c0.753,0.442,1.525,0.868,2.327,1.273c0.798,0.406,1.591,0.741,2.38,1.001
	c0.787,0.263,1.533,0.417,2.238,0.464c0.705,0.05,1.323-0.07,1.861-0.356c0.536-0.287,0.971-0.775,1.305-1.467
	c0.334-0.693,0.515-1.646,0.54-2.864h0.714c0.12,0,0.215,0.167,0.287,0.5c0.072,0.333,0.102,0.746,0.089,1.236
	c-0.013,0.49-0.089,1.015-0.232,1.575c-0.143,0.561-0.382,1.075-0.716,1.538c-0.333,0.467-0.782,0.845-1.342,1.131
	c-0.562,0.282-1.26,0.393-2.094,0.319c-1.171-0.096-2.387-0.39-3.653-0.896c-1.264-0.5-2.516-1.089-3.757-1.772
	c-1.24-0.679-2.439-1.401-3.599-2.166c-1.158-0.764-2.213-1.443-3.168-2.04c-0.071-0.049-0.232-0.099-0.483-0.161
	c-0.251-0.056-0.4-0.099-0.448-0.124h-0.252c-0.144,1.408-0.219,2.844-0.231,4.314c-0.014,1.468-0.175,2.872-0.485,4.209
	c-0.024,0.021-0.106,0.043-0.251,0.066c-0.144,0.023-0.291,0.033-0.448,0.016c-0.157-0.006-0.286-0.061-0.393-0.156
	C31.588,29.283,31.56,29.127,31.607,28.912z"/>
<path class="st5" d="M54.13,28.467c-0.479-0.479-0.859-1.208-1.147-2.184c-0.286-0.979-0.48-2.089-0.59-3.332
	c-0.104-1.24-0.125-2.561-0.054-3.955c0.074-1.398,0.232-2.757,0.486-4.083c0.25-1.325,0.584-2.559,1-3.704
	c0.418-1.147,0.934-2.097,1.542-2.847c0.607-0.754,1.299-1.242,2.073-1.468c0.779-0.228,1.643-0.09,2.599,0.412
	c0.333,0.192,0.684,0.515,1.056,0.968c0.369,0.452,0.722,0.959,1.055,1.519c0.333,0.564,0.63,1.123,0.878,1.684
	c0.248,0.562,0.434,1.032,0.555,1.414c0.022,0.12,0.027,0.484,0.017,1.091c-0.012,0.609-0.032,1.345-0.053,2.204
	c-0.025,0.859-0.02,1.807,0.017,2.845s0.118,2.055,0.252,3.044c0.13,0.991,0.339,1.911,0.626,2.758
	c0.288,0.848,0.667,1.514,1.144,2.006c0.478,0.487,1.081,0.752,1.811,0.784c0.727,0.038,1.615-0.253,2.664-0.874
	c0.385-0.333,0.61-0.662,0.682-0.983c0.071-0.326,0.109-0.601,0.109-0.826c0-0.226,0.023-0.377,0.071-0.447
	c0.047-0.072,0.262-0.011,0.644,0.179c0.477,0.62,0.64,1.283,0.484,1.985c-0.157,0.706-0.502,1.326-1.038,1.863
	c-0.536,0.539-1.212,0.916-2.022,1.145c-0.812,0.227-1.643,0.174-2.492-0.16c-0.844-0.332-1.649-1.012-2.414-2.041
	c-0.764-1.026-1.373-2.518-1.826-4.475c-0.143,0.409-0.362,0.906-0.66,1.504c-0.3,0.598-0.652,1.193-1.056,1.792
	c-0.41,0.595-0.866,1.156-1.38,1.681c-0.513,0.529-1.046,0.919-1.594,1.181c-0.548,0.264-1.117,0.363-1.698,0.303
	C55.281,29.389,54.702,29.063,54.13,28.467z"/>
<path class="st4" d="M54.453,26.211c0.405,0.858,0.882,1.323,1.432,1.396c0.549,0.07,1.11-0.146,1.683-0.646
	c0.572-0.5,1.137-1.228,1.701-2.185c0.561-0.952,1.039-2.036,1.431-3.237c0.395-1.205,0.693-2.473,0.898-3.797
	c0.199-1.325,0.235-2.596,0.105-3.813c-0.132-1.217-0.448-2.328-0.95-3.33c-0.499-1.002-1.264-1.79-2.291-2.363
	C58.44,8.212,58.397,8.2,58.338,8.2c-0.059,0-0.114,0-0.16,0c-0.743,0.334-1.387,0.906-1.936,1.718
	c-0.546,0.811-1.02,1.765-1.411,2.865c-0.396,1.097-0.699,2.277-0.914,3.543c-0.214,1.268-0.336,2.505-0.357,3.724
	c-0.024,1.216,0.035,2.369,0.178,3.453C53.878,24.594,54.12,25.494,54.453,26.211z"/>
<path class="st11" d="M83.059,28.826c-0.956-0.549-1.701-1.107-2.24-1.667c-0.533-0.562-1.044-1.113-1.521-1.649
	c-0.477-0.537-1.024-1.048-1.646-1.536c-0.62-0.493-1.479-0.93-2.578-1.31c-0.167,0.479-0.298,1.039-0.394,1.682
	c-0.093,0.645-0.173,1.296-0.232,1.953c-0.059,0.655-0.105,1.277-0.144,1.863c-0.034,0.582-0.077,1.033-0.123,1.342
	c-0.313,0.381-0.609,0.547-0.895,0.502c-0.288-0.053-0.545-0.199-0.772-0.447c-0.227-0.256-0.416-0.549-0.569-0.898
	c-0.157-0.346-0.25-0.613-0.271-0.801c0.548-1.292,0.923-2.593,1.126-3.904c0.203-1.314,0.298-2.661,0.288-4.047
	c-0.014-1.386-0.089-2.815-0.232-4.298c-0.144-1.478-0.262-3.029-0.359-4.653c0.117-0.191,0.278-0.346,0.482-0.466
	c0.206-0.12,0.425-0.131,0.661-0.038c0.313-0.357,0.719-0.757,1.22-1.198c0.5-0.442,1.043-0.846,1.63-1.216
	c0.585-0.371,1.19-0.675,1.823-0.914c0.632-0.239,1.225-0.34,1.774-0.304c0.548,0.036,1.032,0.245,1.447,0.625
	c0.418,0.384,0.726,1.004,0.916,1.863c0.19,1.241,0.154,2.397-0.107,3.474c-0.264,1.074-0.687,2.092-1.274,3.061
	c-0.584,0.965-1.315,1.872-2.198,2.72c-0.885,0.848-1.865,1.663-2.938,2.452c-0.072,0.143-0.042,0.281,0.088,0.412
	c0.132,0.131,0.299,0.252,0.504,0.356c0.202,0.108,0.408,0.198,0.627,0.271c0.213,0.072,0.368,0.117,0.464,0.144
	c0.478,0.332,1.001,0.781,1.574,1.343c0.572,0.561,1.176,1.134,1.808,1.719c0.633,0.584,1.278,1.113,1.934,1.591
	c0.657,0.477,1.309,0.78,1.953,0.913c0.645,0.131,1.273,0.042,1.877-0.266c0.61-0.312,1.189-0.968,1.739-1.97h0.571
	c0.097,0.715-0.017,1.377-0.339,1.986c-0.321,0.609-0.777,1.08-1.36,1.412c-0.585,0.332-1.26,0.516-2.024,0.541
	C84.587,29.492,83.823,29.274,83.059,28.826z"/>
<path class="st4" d="M74.789,17.045c0.023,0.095,0.045,0.269,0.071,0.517c0.022,0.253,0.053,0.515,0.088,0.789
	c0.036,0.274,0.062,0.532,0.09,0.771c0.025,0.24,0.036,0.406,0.036,0.501c1.026-0.405,1.92-1.039,2.686-1.898
	c0.762-0.859,1.381-1.785,1.859-2.776c0.477-0.988,0.795-1.978,0.946-2.969c0.157-0.99,0.152-1.809-0.017-2.451
	c-0.164-0.647-0.517-1.046-1.055-1.201c-0.537-0.155-1.26,0.089-2.167,0.734c-0.858,0.62-1.486,1.223-1.877,1.809
	c-0.396,0.584-0.66,1.193-0.791,1.825c-0.129,0.633-0.16,1.301-0.088,2.007C74.646,15.405,74.717,16.186,74.789,17.045z"/>
<path class="st5" d="M87.926,28.928c-0.047-0.141-0.083-0.621-0.106-1.445c-0.026-0.826-0.04-1.822-0.054-2.991
	c-0.011-1.168-0.005-2.441,0.017-3.814c0.025-1.372,0.056-2.659,0.094-3.865c0.033-1.205,0.08-2.25,0.14-3.133
	c0.061-0.882,0.127-1.443,0.198-1.683c0.142-0.072,0.299-0.072,0.463,0c0.169,0.071,0.315,0.167,0.449,0.288
	c0.129,0.119,0.244,0.263,0.339,0.429c0.098,0.168,0.145,0.31,0.145,0.43V28.93c0,0.266-0.071,0.459-0.215,0.592
	c-0.142,0.131-0.315,0.197-0.519,0.197c-0.203,0-0.393-0.066-0.572-0.197C88.125,29.389,87.997,29.196,87.926,28.928z"/>
<path class="st11" d="M87.943,6.546c-0.029-0.087-0.055-0.214-0.067-0.379c-0.017-0.164-0.021-0.342-0.021-0.536
	s0.004-0.374,0.021-0.537c0.012-0.164,0.039-0.276,0.067-0.337c0.237-0.118,0.507-0.222,0.805-0.313
	c0.297-0.09,0.61-0.104,0.94-0.042c0.51,0.654,0.827,1.184,0.96,1.588c0.135,0.402,0.144,0.715,0.025,0.94
	c-0.125,0.223-0.325,0.357-0.608,0.401c-0.284,0.046-0.575,0.039-0.873-0.022c-0.296-0.059-0.576-0.157-0.827-0.291
	C88.112,6.884,87.972,6.728,87.943,6.546z"/>
<path class="st5" d="M91.903,29.504c-0.051-0.047-0.108-0.145-0.182-0.287c-0.07-0.143-0.118-0.24-0.142-0.289
	c0.071-0.311,0.15-1.007,0.23-2.092c0.083-1.085,0.182-2.344,0.291-3.778c0.104-1.43,0.233-2.921,0.391-4.474
	c0.154-1.55,0.327-2.936,0.518-4.154c0.193-1.215,0.417-2.153,0.685-2.81c0.26-0.656,0.558-0.816,0.894-0.482
	c0.715,0.524,1.38,1.187,2,1.987c0.623,0.8,1.222,1.663,1.794,2.593c0.576,0.932,1.129,1.894,1.665,2.883
	c0.538,0.99,1.098,1.932,1.684,2.829c0.583,0.896,1.205,1.707,1.863,2.433c0.654,0.731,1.363,1.296,2.13,1.701h0.251
	c0.046-0.573,0.102-1.283,0.158-2.131c0.061-0.846,0.125-1.769,0.2-2.774c0.068-1.003,0.14-2.036,0.211-3.098
	c0.072-1.059,0.162-2.097,0.271-3.113c0.108-1.013,0.219-1.951,0.338-2.809c0.122-0.859,0.254-1.587,0.395-2.184
	c0.022-0.048,0.077-0.148,0.162-0.305c0.082-0.155,0.179-0.311,0.287-0.465c0.106-0.156,0.221-0.281,0.339-0.376
	c0.122-0.096,0.239-0.096,0.358,0l1.684,1.718c0.072,0.072,0.03,0.222-0.126,0.448c-0.156,0.228-0.337,0.479-0.553,0.751
	c-0.215,0.275-0.43,0.539-0.645,0.788c-0.216,0.251-0.334,0.436-0.359,0.556c-0.164,0.621-0.312,1.367-0.428,2.238
	c-0.122,0.873-0.217,1.8-0.291,2.793c-0.071,0.992-0.131,2.011-0.176,3.059c-0.048,1.054-0.089,2.071-0.127,3.061
	c-0.035,0.993-0.06,1.931-0.071,2.813c-0.008,0.881-0.031,1.646-0.054,2.293c-0.858-0.025-1.683-0.289-2.468-0.791
	c-0.789-0.5-1.547-1.165-2.275-1.988c-0.727-0.824-1.432-1.752-2.111-2.792c-0.683-1.037-1.337-2.088-1.971-3.149
	c-0.634-1.062-1.248-2.106-1.84-3.133c-0.6-1.026-1.174-1.933-1.722-2.72h-0.322c-0.098,0-0.174,0.257-0.235,0.771
	c-0.057,0.512-0.111,1.175-0.159,1.985c-0.047,0.812-0.094,1.736-0.145,2.774c-0.047,1.039-0.112,2.077-0.195,3.117
	c-0.084,1.039-0.186,2.03-0.304,2.971c-0.123,0.94-0.262,1.738-0.431,2.383c-0.165,0.646-0.369,1.096-0.606,1.357
	C92.521,29.875,92.236,29.836,91.903,29.504z"/>
<path class="st5" d="M119.81,28.614c0-0.455,0.019-1.063,0.053-1.828c0.039-0.763,0.067-1.599,0.088-2.505
	c0.026-0.907,0.039-1.838,0.039-2.793c0-0.953-0.022-1.849-0.071-2.685c-0.047-0.836-0.128-1.562-0.237-2.185
	c-0.103-0.618-0.253-1.037-0.443-1.251c-1.502,0.117-2.65,0.104-3.441-0.039c-0.785-0.142-1.181-0.333-1.196-0.57
	c-0.011-0.24,0.389-0.497,1.196-0.77c0.816-0.274,2.072-0.471,3.763-0.592c0-0.286,0.008-0.791,0.02-1.522
	c0.012-0.727,0.015-1.498,0.015-2.31c0-0.811-0.003-1.576-0.015-2.29c-0.012-0.716-0.02-1.218-0.02-1.506
	c-0.021-0.166-0.059-0.393-0.106-0.678c-0.049-0.288-0.094-0.592-0.143-0.915c-0.049-0.321-0.086-0.646-0.109-0.966
	c-0.021-0.322-0.013-0.59,0.037-0.806c0.048-0.287,0.172-0.484,0.377-0.59c0.2-0.107,0.409-0.156,0.624-0.145
	c0.215,0.013,0.413,0.084,0.591,0.215c0.182,0.131,0.271,0.303,0.271,0.517v10.706c0,0.239,0.294,0.352,0.895,0.339
	c0.596-0.013,1.32-0.064,2.181-0.16c0.859-0.096,1.76-0.198,2.706-0.306c0.94-0.106,1.755-0.137,2.435-0.088
	c0.681,0.049,1.139,0.208,1.379,0.484c0.237,0.274,0.096,0.745-0.431,1.413c-0.051,0.05-0.144,0.107-0.287,0.181
	c-0.139,0.067-0.241,0.105-0.286,0.105c-1.291-0.045-2.647-0.059-4.082-0.038c-1.434,0.025-2.791,0.135-4.081,0.326
	c-0.429,0.071-0.662,0.47-0.699,1.198c-0.034,0.728,0.025,1.617,0.179,2.668c0.157,1.051,0.335,2.166,0.537,3.348
	c0.203,1.18,0.327,2.261,0.372,3.238c0.053,0.979-0.051,1.775-0.3,2.382c-0.248,0.607-0.759,0.838-1.522,0.695
	c-0.047,0-0.105-0.031-0.177-0.104C119.845,28.721,119.81,28.66,119.81,28.614z"/>
<path class="st5" d="M146.628,27.504c0.143-4.442-0.047-8.015-0.558-10.723c-0.513-2.708-1.204-4.649-2.076-5.818
	c-0.871-1.169-1.833-1.623-2.882-1.36c-1.05,0.264-2.047,1.127-2.989,2.596c-0.942,1.468-1.755,3.48-2.434,6.033
	c-0.68,2.552-1.069,5.549-1.166,8.986c-0.099,0.288-0.235,0.422-0.432,0.413c-0.189-0.013-0.38-0.104-0.571-0.271
	c-0.19-0.167-0.357-0.375-0.496-0.628c-0.146-0.25-0.219-0.469-0.219-0.662c0-0.095,0.019-0.322,0.056-0.677
	c0.036-0.359,0.072-0.744,0.106-1.148c0.037-0.406,0.062-0.789,0.086-1.144c0.027-0.358,0.039-0.584,0.039-0.682
	c0-0.213,0.005-0.555,0.021-1.019c0.011-0.466,0.015-0.999,0.015-1.594c0-0.596,0-1.222,0-1.88c0-0.656,0-1.274,0-1.863
	c0-0.583-0.004-1.115-0.015-1.592c-0.016-0.478-0.021-0.835-0.021-1.074c0-0.12-0.012-0.377-0.039-0.769
	c-0.023-0.393-0.044-0.813-0.068-1.253c-0.022-0.44-0.052-0.871-0.088-1.291c-0.036-0.416-0.066-0.722-0.092-0.913
	c0-0.119-0.029-0.4-0.092-0.84c-0.059-0.441-0.114-0.92-0.177-1.434c-0.056-0.512-0.111-0.988-0.162-1.43
	c-0.045-0.443-0.081-0.723-0.104-0.842c-0.071-0.764,0.022-1.211,0.286-1.342c0.262-0.13,0.631,0.136,1.104,0.804
	c0.196,1.958,0.327,3.885,0.398,5.782s0.229,3.813,0.465,5.747c0.215-0.716,0.485-1.474,0.806-2.273
	c0.321-0.798,0.704-1.556,1.147-2.273c0.438-0.716,0.967-1.348,1.573-1.896c0.61-0.549,1.308-0.932,2.096-1.147
	c1.048-0.31,1.96-0.347,2.719-0.107c0.763,0.241,1.416,0.662,1.95,1.272c0.54,0.609,0.973,1.365,1.31,2.272
	c0.333,0.908,0.61,1.888,0.82,2.938c0.219,1.05,0.373,2.13,0.466,3.239c0.1,1.11,0.183,2.167,0.253,3.168
	c0.069,1.004,0.133,1.915,0.178,2.742c0.051,0.822,0.119,1.483,0.217,1.986c0.071,0.381,0.251,0.602,0.534,0.661
	c0.289,0.061,0.549,0.122,0.79,0.181c0.237,0.059,0.377,0.189,0.411,0.392c0.039,0.203-0.161,0.625-0.592,1.272
	c-0.164,0.236-0.399,0.418-0.696,0.535c-0.3,0.119-0.598,0.174-0.895,0.16c-0.298-0.008-0.55-0.117-0.754-0.318
	C146.653,28.213,146.581,27.909,146.628,27.504z"/>
<g>
	<g>
		<path class="st1" d="M165.488,23.098c-0.186,0.094-0.496,0.305-0.927,0.625c-0.428,0.324-0.942,0.714-1.538,1.167
			c-0.597,0.451-1.206,0.857-1.828,1.215c-0.62,0.359-1.23,0.609-1.823,0.754c-0.595,0.141-1.101,0.069-1.501-0.217
			c-0.556-0.381-0.972-0.773-1.26-1.181c-0.285-0.408-0.485-0.834-0.608-1.29c-0.119-0.452-0.176-0.936-0.176-1.451
			c0-0.512,0.022-1.077,0.07-1.698c0.025-0.527,0.196-0.967,0.52-1.326c0.326-0.36,0.711-0.711,1.166-1.056
			c0.45-0.347,0.928-0.709,1.429-1.094c0.503-0.381,0.955-0.852,1.366-1.416c0.4-0.56,0.726-1.245,0.96-2.059
			c0.242-0.809,0.309-1.8,0.216-2.971c-0.046-0.071-0.134-0.171-0.267-0.303c-0.136-0.13-0.27-0.269-0.414-0.411
			c-0.142-0.143-0.282-0.282-0.41-0.413s-0.235-0.22-0.308-0.268c-0.711-0.312-1.316-0.359-1.806-0.144
			c-0.488,0.215-0.907,0.584-1.255,1.109c-0.344,0.526-0.632,1.151-0.856,1.881c-0.228,0.727-0.419,1.449-0.576,2.164
			c-0.152,0.72-0.302,1.369-0.444,1.954c-0.146,0.584-0.299,0.999-0.465,1.234c-0.05,0.071-0.211,0.176-0.485,0.322
			c-0.276,0.142-0.482,0.213-0.625,0.213c-1.025,0.167-1.804,0.345-2.327,0.537c-0.527,0.193-0.854,0.375-0.989,0.556
			c-0.13,0.178-0.112,0.346,0.057,0.503c0.17,0.153,0.447,0.274,0.845,0.354c0.388,0.084,0.853,0.135,1.376,0.145
			c0.527,0.011,1.064-0.032,1.611-0.125c0.07,0.837,0.134,1.661,0.178,2.471c0.048,0.812,0.179,1.575,0.396,2.291
			c0.214,0.716,0.556,1.375,1.02,1.97s1.153,1.085,2.06,1.47c1,0.426,1.9,0.555,2.696,0.375c0.808-0.182,1.515-0.545,2.137-1.092
			c0.616-0.55,1.157-1.218,1.608-2.007c0.455-0.788,0.847-1.574,1.179-2.365C165.685,23.147,165.685,23.004,165.488,23.098z
			 M156.582,16.334c0.064-0.359,0.116-0.6,0.137-0.719c0.313-1.098,0.661-1.951,1.04-2.558c0.385-0.61,0.747-1.021,1.091-1.236
			c0.348-0.214,0.648-0.256,0.896-0.125c0.252,0.13,0.376,0.389,0.376,0.769c0,0.382-0.146,0.876-0.446,1.486
			c-0.301,0.608-0.806,1.271-1.523,1.988c-0.05,0.048-0.139,0.123-0.269,0.23c-0.129,0.109-0.27,0.216-0.412,0.324
			c-0.139,0.106-0.282,0.215-0.431,0.321c-0.141,0.11-0.249,0.186-0.321,0.233c-0.021,0.024-0.062,0.039-0.126,0.039
			c-0.057,0-0.099-0.014-0.122-0.039C156.472,16.927,156.504,16.69,156.582,16.334z"/>
	</g>
	<g>
		<path class="st12" d="M165.488,23.098c-0.186,0.094-0.496,0.305-0.927,0.625c-0.428,0.324-0.942,0.714-1.538,1.167
			c-0.597,0.451-1.206,0.857-1.828,1.215c-0.62,0.359-1.23,0.609-1.823,0.754c-0.595,0.141-1.101,0.069-1.501-0.217
			c-0.556-0.381-0.972-0.773-1.26-1.181c-0.285-0.408-0.485-0.834-0.608-1.29c-0.119-0.452-0.176-0.936-0.176-1.451
			c0-0.512,0.022-1.077,0.07-1.698c0.025-0.527,0.196-0.967,0.52-1.326c0.326-0.36,0.711-0.711,1.166-1.056
			c0.45-0.347,0.928-0.709,1.429-1.094c0.503-0.381,0.955-0.852,1.366-1.416c0.4-0.56,0.726-1.245,0.96-2.059
			c0.242-0.809,0.309-1.8,0.216-2.971c-0.046-0.071-0.134-0.171-0.267-0.303c-0.136-0.13-0.27-0.269-0.414-0.411
			c-0.142-0.143-0.282-0.282-0.41-0.413s-0.235-0.22-0.308-0.268c-0.711-0.312-1.316-0.359-1.806-0.144
			c-0.488,0.215-0.907,0.584-1.255,1.109c-0.344,0.526-0.632,1.151-0.856,1.881c-0.228,0.727-0.419,1.449-0.576,2.164
			c-0.152,0.72-0.302,1.369-0.444,1.954c-0.146,0.584-0.299,0.999-0.465,1.234c-0.05,0.071-0.211,0.176-0.485,0.322
			c-0.276,0.142-0.482,0.213-0.625,0.213c-1.025,0.167-1.804,0.345-2.327,0.537c-0.527,0.193-0.854,0.375-0.989,0.556
			c-0.13,0.178-0.112,0.346,0.057,0.503c0.17,0.153,0.447,0.274,0.845,0.354c0.388,0.084,0.853,0.135,1.376,0.145
			c0.527,0.011,1.064-0.032,1.611-0.125c0.07,0.837,0.134,1.661,0.178,2.471c0.048,0.812,0.179,1.575,0.396,2.291
			c0.214,0.716,0.556,1.375,1.02,1.97s1.153,1.085,2.06,1.47c1,0.426,1.9,0.555,2.696,0.375c0.808-0.182,1.515-0.545,2.137-1.092
			c0.616-0.55,1.157-1.218,1.608-2.007c0.455-0.788,0.847-1.574,1.179-2.365C165.685,23.147,165.685,23.004,165.488,23.098z
			 M156.582,16.334c0.064-0.359,0.116-0.6,0.137-0.719c0.313-1.098,0.661-1.951,1.04-2.558c0.385-0.61,0.747-1.021,1.091-1.236
			c0.348-0.214,0.648-0.256,0.896-0.125c0.252,0.13,0.376,0.389,0.376,0.769c0,0.382-0.146,0.876-0.446,1.486
			c-0.301,0.608-0.806,1.271-1.523,1.988c-0.05,0.048-0.139,0.123-0.269,0.23c-0.129,0.109-0.27,0.216-0.412,0.324
			c-0.139,0.106-0.282,0.215-0.431,0.321c-0.141,0.11-0.249,0.186-0.321,0.233c-0.021,0.024-0.062,0.039-0.126,0.039
			c-0.057,0-0.099-0.014-0.122-0.039C156.472,16.927,156.504,16.69,156.582,16.334z"/>
	</g>
</g>
<path class="st5" d="M166.923,28.039c-0.05-0.141-0.082-0.626-0.103-1.45c-0.023-0.824-0.043-1.82-0.059-2.989
	c-0.014-1.17-0.006-2.442,0.02-3.814c0.023-1.371,0.052-2.66,0.088-3.866c0.039-1.205,0.087-2.249,0.144-3.132
	c0.059-0.882,0.127-1.444,0.198-1.684c0.144-0.071,0.297-0.071,0.468,0c0.164,0.073,0.316,0.168,0.448,0.288
	c0.127,0.119,0.241,0.264,0.337,0.429c0.1,0.167,0.146,0.311,0.146,0.43v15.79c0,0.262-0.074,0.459-0.217,0.59
	c-0.146,0.133-0.317,0.195-0.519,0.195c-0.204,0-0.392-0.062-0.574-0.195C167.124,28.5,166.996,28.301,166.923,28.039z"/>
<path class="st11" d="M166.8,5.725c-0.029-0.098-0.059-0.236-0.069-0.417c-0.019-0.182-0.029-0.376-0.029-0.591
	c0-0.213,0.011-0.412,0.029-0.59c0.013-0.181,0.04-0.304,0.069-0.371c0.267-0.13,0.559-0.247,0.887-0.345
	c0.327-0.099,0.673-0.116,1.034-0.048c0.56,0.722,0.909,1.305,1.058,1.747c0.151,0.443,0.157,0.786,0.028,1.033
	c-0.136,0.246-0.355,0.395-0.668,0.442c-0.312,0.051-0.633,0.043-0.958-0.022c-0.329-0.064-0.633-0.173-0.915-0.32
	C166.988,6.095,166.833,5.921,166.8,5.725z"/>
<path class="st5" d="M176.339,29.076c-0.213-0.121-0.505-0.268-0.877-0.447c-0.371-0.176-0.757-0.387-1.165-0.625
	c-0.403-0.239-0.792-0.497-1.161-0.771c-0.37-0.275-0.674-0.571-0.915-0.896c-0.239-0.321-0.367-0.662-0.392-1.019
	c-0.021-0.357,0.105-0.729,0.392-1.11c0.048-0.049,0.212,0.078,0.483,0.376c0.276,0.299,0.627,0.655,1.057,1.075
	c0.43,0.417,0.92,0.847,1.466,1.288c0.553,0.442,1.112,0.778,1.687,1.004c0.572,0.224,1.147,0.296,1.716,0.216
	c0.575-0.086,1.101-0.44,1.58-1.06c0.188-0.262,0.325-0.567,0.409-0.913c0.085-0.346,0.113-0.697,0.094-1.057
	c-0.025-0.359-0.085-0.71-0.163-1.055c-0.086-0.347-0.197-0.663-0.339-0.95c-0.314-0.667-0.797-1.347-1.454-2.041
	c-0.654-0.694-1.358-1.396-2.109-2.112c-0.753-0.715-1.488-1.444-2.202-2.186c-0.717-0.737-1.276-1.489-1.684-2.253
	c-0.408-0.764-0.604-1.535-0.589-2.309c0.007-0.776,0.363-1.57,1.055-2.383c0.55-0.621,1.232-0.931,2.061-0.931
	c0.819,0,1.631,0.179,2.43,0.536c0.802,0.36,1.504,0.82,2.114,1.381c0.607,0.56,0.983,1.102,1.13,1.627
	c0.068,0.215,0.094,0.448,0.068,0.698c-0.024,0.25-0.095,0.458-0.216,0.627c-0.121,0.167-0.292,0.282-0.517,0.338
	c-0.23,0.062-0.523,0.02-0.877-0.124c-0.408-0.144-0.724-0.453-0.947-0.93c-0.229-0.48-0.47-0.949-0.722-1.415
	c-0.252-0.467-0.568-0.834-0.966-1.11c-0.395-0.274-0.971-0.292-1.735-0.056c-0.862,0.289-1.323,0.724-1.399,1.308
	c-0.065,0.586,0.106,1.254,0.522,2.005c0.414,0.752,0.99,1.539,1.72,2.362c0.725,0.826,1.47,1.607,2.222,2.345
	c0.748,0.744,1.423,1.405,2.021,1.989c0.596,0.583,0.963,1.01,1.108,1.272c0.285,0.548,0.542,1.234,0.772,2.056
	c0.225,0.825,0.3,1.629,0.229,2.417c-0.072,0.787-0.332,1.477-0.79,2.057c-0.451,0.588-1.217,0.914-2.289,0.984
	c-0.146,0.025-0.341,0.043-0.592,0.055c-0.247,0.014-0.508,0.02-0.768,0.02c-0.262,0-0.532-0.025-0.804-0.072
	C176.728,29.246,176.508,29.174,176.339,29.076z"/>
<path class="st5" d="M189.623,29.076c-0.215-0.121-0.505-0.268-0.877-0.447c-0.373-0.176-0.757-0.387-1.165-0.625
	c-0.406-0.239-0.79-0.497-1.161-0.771s-0.674-0.571-0.916-0.896c-0.237-0.321-0.368-0.662-0.389-1.019
	c-0.026-0.357,0.105-0.729,0.389-1.11c0.048-0.049,0.212,0.078,0.487,0.376c0.278,0.299,0.626,0.655,1.055,1.075
	c0.426,0.417,0.92,0.847,1.467,1.288c0.548,0.442,1.11,0.778,1.687,1.004c0.568,0.224,1.145,0.296,1.717,0.216
	c0.57-0.086,1.098-0.44,1.576-1.06c0.188-0.262,0.329-0.567,0.407-0.913c0.088-0.346,0.116-0.697,0.094-1.057
	c-0.023-0.359-0.078-0.71-0.16-1.055c-0.084-0.347-0.197-0.663-0.34-0.95c-0.312-0.667-0.795-1.347-1.449-2.041
	c-0.657-0.694-1.362-1.396-2.113-2.112c-0.749-0.715-1.487-1.444-2.201-2.186c-0.718-0.737-1.278-1.489-1.684-2.253
	c-0.406-0.764-0.606-1.535-0.591-2.309c0.007-0.776,0.365-1.57,1.054-2.383c0.548-0.621,1.237-0.931,2.06-0.931
	c0.823,0,1.633,0.179,2.438,0.536c0.798,0.36,1.499,0.82,2.111,1.381c0.606,0.56,0.982,1.102,1.125,1.627
	c0.071,0.215,0.094,0.448,0.071,0.698c-0.024,0.25-0.098,0.458-0.215,0.627c-0.122,0.167-0.292,0.282-0.521,0.338
	c-0.227,0.062-0.519,0.02-0.874-0.124c-0.408-0.144-0.726-0.453-0.948-0.93c-0.227-0.48-0.47-0.949-0.719-1.415
	c-0.25-0.467-0.569-0.834-0.968-1.11c-0.392-0.274-0.974-0.292-1.733-0.056c-0.865,0.289-1.326,0.724-1.399,1.308
	c-0.071,0.586,0.103,1.254,0.521,2.005c0.417,0.752,0.987,1.539,1.721,2.362c0.725,0.826,1.468,1.607,2.219,2.345
	c0.752,0.744,1.423,1.405,2.02,1.989c0.597,0.583,0.968,1.01,1.112,1.272c0.283,0.548,0.542,1.234,0.769,2.056
	c0.226,0.825,0.302,1.629,0.23,2.417c-0.07,0.787-0.334,1.477-0.789,2.057c-0.452,0.588-1.216,0.914-2.288,0.984
	c-0.148,0.025-0.342,0.043-0.593,0.055c-0.253,0.014-0.505,0.02-0.768,0.02c-0.26,0-0.529-0.025-0.804-0.072
	C190.01,29.246,189.792,29.174,189.623,29.076z"/>
<g>
	<g>
		<path class="st2" d="M20.241,48.02c0.608,3.865-0.153,3.738-0.153,3.738S8.644,51.33,2.278,51.123
			c-6.391-0.207-16.595,0.828-16.595,0.828s-2.542-2.418-0.188-5.342"/>
		<g>
			<path class="st8" d="M20.241,48.02c0.608,3.865-0.153,3.738-0.153,3.738S8.644,51.33,2.278,51.123
				c-6.391-0.207-16.595,0.828-16.595,0.828s-2.542-2.418-0.188-5.342"/>
			<path class="st3" d="M19.741,48.02c0.044,0.361,0.677,3.25-0.054,3.223c-1.273-0.047-2.546-0.094-3.819-0.141
				c-3.768-0.139-7.535-0.273-11.302-0.402c-3.91-0.133-7.787-0.057-11.691,0.176c-2.911,0.172-10.698,2.574-6.948-4.014
				c0.32-0.561-0.544-1.064-0.863-0.504c-0.52,0.912-2.095,6.365,0.736,6.082c5.468-0.545,10.982-0.926,16.479-0.816
				c5.645,0.113,11.291,0.393,16.933,0.602c2.446,0.09,1.784-2.145,1.53-4.205C20.663,47.389,19.662,47.381,19.741,48.02
				L19.741,48.02z"/>
		</g>
	</g>
	<g>
		<path class="st2" d="M-14.505,46.61c0.94-2.734,5.157,0.089,7.63,0.57c2.275,0.443,2.991,0.381,5.93,0.218
			c0.907-0.051,0.743-4.731,0.111-5.116c-0.637-0.379-5.975,0.191-6.361-1.906c-0.381-2.098,2.419-9.412,4.136-12.907
			c1.715-3.495,7.836-9.521,7.836-9.521c0.306,0.025,0.964,1.263,2.409,1.982c1.444,0.721,3.557,1.266,3.823,1.954
			c0.265,0.69-0.397,5.374-0.095,7.364c0,0,0.589,5.215,1.161,6.742c0.571,1.527,1.721,5.17,1.622,5.699
			c-0.098,0.531-0.452,0.967-0.753,1.07c-0.298,0.098-6.335,0.926-7.099,0.607c-0.768-0.318-1.281,3.57-0.386,3.885
			c0.895,0.312,4.135,1.076,6.616,0.057c2.481-1.018,7.564-3.148,8.168,0.713"/>
		<g>
			<path class="st8" d="M-14.505,46.61c0.94-2.734,5.157,0.089,7.63,0.57c2.275,0.443,2.991,0.381,5.93,0.218
				c0.907-0.051,0.743-4.731,0.111-5.116c-0.637-0.379-5.975,0.191-6.361-1.906c-0.381-2.098,2.419-9.412,4.136-12.907
				c1.715-3.495,7.836-9.521,7.836-9.521c0.306,0.025,0.964,1.263,2.409,1.982c1.444,0.721,3.557,1.266,3.823,1.954
				c0.265,0.69-0.397,5.374-0.095,7.364c0,0,0.589,5.215,1.161,6.742c0.571,1.527,1.721,5.17,1.622,5.699
				c-0.098,0.531-0.452,0.967-0.753,1.07c-0.298,0.098-6.335,0.926-7.099,0.607c-0.768-0.318-1.281,3.57-0.386,3.885
				c0.895,0.312,4.135,1.076,6.616,0.057c2.481-1.018,7.564-3.148,8.168,0.713"/>
			<path class="st3" d="M-14.074,46.862c1.976-3.104,10.708,3.735,13.773,0.671c0.78-0.779,0.995-5.374-0.401-5.733
				c-1.558-0.401-5.904,0.37-6.026-2.052c-0.174-3.467,2.303-8.057,3.65-11.079c1.396-3.13,3.789-5.689,6.09-8.181
				c2.286-2.476,1.439-1.841,3.92-0.127c1.07,0.739,3.643,0.792,3.63,2.684c-0.01,1.435-0.171,2.875-0.225,4.309
				c-0.075,1.98,0.334,4.016,0.635,5.963c0.38,2.458,1.319,4.745,1.991,7.131c0.796,2.829-5.23,2.729-6.987,2.436
				c-1.648-0.275-1.864,3.482-1.208,4.302c3.042,3.799,13.549-3.638,14.991,0.968c0.192,0.613,1.157,0.352,0.964-0.266
				c-1.624-5.189-7.845-0.923-11.269-0.572c-1.093,0.027-2.172-0.094-3.236-0.363c-1.096-2.207-1.095-3.215,0.001-3.023
				c1.446,0.013,2.88-0.156,4.315-0.322c0.823-0.096,2.86,0.029,3.292-0.97c0.699-1.62-0.066-3.093-0.575-4.741
				c-0.893-2.893-1.486-5.621-1.839-8.648c-0.291-2.497,0.418-5.02,0.077-7.497c-0.044-0.321-0.485-0.671-0.736-0.793
				c-2.078-1.015-3.801-1.85-5.624-3.363c-0.21-0.174-0.5-0.205-0.707,0c-3.16,3.136-6.439,6.511-8.363,10.57
				c-1.27,2.68-5.141,9.519-3.687,12.464c0.607,1.23,1.574,1.489,2.901,1.764c0.932,0.193,1.929,0.188,2.877,0.239
				c1.57,0.084,1.704,4.225-0.623,4.351c-3.589,0.193-6.341-1.279-9.725-2.001c-1.333-0.285-2.087,0.352-2.74,1.378
				C-15.284,46.904-14.418,47.405-14.074,46.862L-14.074,46.862z"/>
		</g>
	</g>
	<g>
		<path class="st2" d="M8.196,5.221C6.552,6.454,6.141,8.259,6.141,8.259c-0.411,2.469,0.574,4.108,1.068,5.251
			c0,0,2.215,3.449,5.583,4.513c3.364,1.077,5.251,0.579,6.727-0.735c1.474-1.312,2.626-2.702,2.467-3.778
			c-0.164-1.066-0.928-6.688-2.681-7.571c-1.753-0.876-2.43-1.473-3.775-1.586 M15.531,4.352c-1.345-0.113-5.695-0.361-7.334,0.869
			 M11.887,14.666c-2.051-0.95-2.294-5.954-2.294-5.954 M9.592,8.713c0,0,3.651,3.364,4.756,3.899
			c1.11,0.535,5.427,0.708,5.427,0.708s-1.403,1.957-2.872,2.434c-1.478,0.473-5.017-1.087-5.017-1.087"/>
		<g>
			<path class="st8" d="M8.196,5.221C6.552,6.454,6.141,8.259,6.141,8.259c-0.411,2.469,0.574,4.108,1.068,5.251
				c0,0,2.215,3.449,5.583,4.513c3.364,1.077,5.251,0.579,6.727-0.735c1.474-1.312,2.626-2.702,2.467-3.778
				c-0.164-1.066-0.928-6.688-2.681-7.571c-1.753-0.876-2.43-1.473-3.775-1.586 M15.531,4.352c-1.345-0.113-5.695-0.361-7.334,0.869
				 M11.887,14.666c-2.051-0.95-2.294-5.954-2.294-5.954 M9.592,8.713c0,0,3.651,3.364,4.756,3.899
				c1.11,0.535,5.427,0.708,5.427,0.708s-1.403,1.957-2.872,2.434c-1.478,0.473-5.017-1.087-5.017-1.087"/>
			<path class="st3" d="M7.843,4.868c-6.187,5.586,1.8,15.203,8.787,14.206c3.398-0.485,6.209-3.479,5.648-6.919
				c-0.692-4.237-1.934-7.5-6.614-8.285c-0.63-0.106-0.901,0.857-0.266,0.964c3.328,0.559,4.781,2.578,5.535,5.659
				c0.824,3.367-0.085,6.43-3.851,7.514c-6.252,1.8-14.03-7.467-8.532-12.432C9.029,5.142,8.32,4.437,7.843,4.868L7.843,4.868z"/>
			<path class="st3" d="M15.531,3.852c-2.366-0.19-5.514-0.449-7.587,0.938C7.411,5.146,7.911,6.012,8.449,5.653
				c1.913-1.278,4.889-0.977,7.082-0.801C16.174,4.904,16.169,3.904,15.531,3.852L15.531,3.852z"/>
			<path class="st3" d="M12.139,14.235c-1.678-0.892-1.958-3.821-2.047-5.522c-0.034-0.642-1.034-0.645-1,0
				c0.109,2.076,0.495,5.297,2.542,6.385C12.204,15.401,12.708,14.537,12.139,14.235L12.139,14.235z"/>
			<path class="st3" d="M9.239,9.066c1.475,1.355,2.973,2.785,4.663,3.87c1.52,0.976,4.138,0.81,5.874,0.884
				c-0.144-0.251-0.288-0.501-0.432-0.752c-0.854,1.157-2.004,2.333-3.53,2.254c-1.228-0.063-2.555-0.602-3.675-1.087
				c-0.585-0.254-1.095,0.607-0.505,0.863c1.453,0.63,2.99,1.163,4.581,1.245c1.655,0.085,3.105-1.569,3.992-2.771
				c0.239-0.325-0.089-0.738-0.432-0.752c-1.652-0.07-3.897,0.062-5.369-0.748c-1.641-0.902-3.086-2.451-4.46-3.713
				C9.472,7.924,8.763,8.629,9.239,9.066L9.239,9.066z"/>
		</g>
	</g>
</g>
<g>
	<path class="st0" d="M46.95,52.647c-0.475-0.357-0.825-0.756-1.056-1.188c-0.229-0.43-0.378-0.891-0.452-1.373
		c-0.07-0.48-0.07-0.979,0-1.492c0.076-0.516,0.188-1.035,0.333-1.559c0.099-0.326,0.192-0.719,0.281-1.178
		c0.087-0.453,0.199-0.914,0.327-1.379c0.131-0.469,0.288-0.902,0.469-1.299c0.178-0.404,0.4-0.717,0.66-0.945
		c0.163-0.145,0.378-0.254,0.636-0.334c0.262-0.068,0.53-0.111,0.811-0.119c0.278-0.01,0.547,0,0.81,0.014
		c0.258,0.01,0.473,0.031,0.636,0.051c0.717,0.047,1.274,0.285,1.665,0.719c0.394,0.434,0.655,0.967,0.785,1.607
		c0.132,0.633,0.149,1.348,0.064,2.127c-0.095,0.791-0.27,1.562-0.542,2.322c-0.27,0.76-0.608,1.471-1.016,2.143
		c-0.41,0.666-0.853,1.213-1.339,1.629c-0.479,0.416-0.986,0.662-1.516,0.744C47.973,53.219,47.456,53.053,46.95,52.647z"/>
	<path class="st4" d="M47.314,51.297c0.412,0.328,0.85,0.404,1.324,0.227c0.475-0.186,0.928-0.516,1.361-1.01
		c0.433-0.488,0.819-1.082,1.163-1.773c0.342-0.697,0.587-1.391,0.736-2.086c0.146-0.693,0.169-1.338,0.069-1.932
		c-0.094-0.6-0.357-1.045-0.78-1.34c-0.606-0.406-1.177-0.535-1.716-0.379c-0.541,0.156-1.013,0.475-1.422,0.961
		c-0.406,0.477-0.746,1.08-1.016,1.797c-0.271,0.721-0.443,1.438-0.527,2.156c-0.081,0.725-0.061,1.387,0.064,2.012
		C46.692,50.551,46.94,51.008,47.314,51.297z"/>
	<path class="st0" d="M34.796,52.475c-0.423-0.326-0.821-0.824-1.19-1.49c-0.367-0.674-0.674-1.418-0.919-2.244
		c-0.244-0.83-0.417-1.689-0.515-2.588c-0.097-0.898-0.105-1.742-0.023-2.533c0.082-0.793,0.273-1.49,0.577-2.086
		c0.299-0.594,0.729-1.008,1.285-1.236c0.458-0.178,0.854-0.145,1.189,0.109c0.335,0.258,0.611,0.59,0.822,1.004
		c0.208,0.42,0.355,0.85,0.428,1.287c0.074,0.441,0.069,0.766-0.013,0.975c-0.082,0.201-0.239,0.217-0.476,0.045
		c-0.237-0.17-0.562-0.666-0.97-1.482c-0.18-0.377-0.372-0.502-0.575-0.379c-0.206,0.125-0.393,0.414-0.567,0.873
		c-0.172,0.451-0.308,1.027-0.417,1.727c-0.102,0.693-0.162,1.416-0.169,2.166c-0.009,0.752,0.051,1.484,0.169,2.197
		c0.125,0.705,0.332,1.309,0.626,1.811c0.294,0.498,0.69,0.84,1.188,1.025c0.498,0.191,1.116,0.137,1.85-0.156
		c0.146-0.068,0.384-0.27,0.71-0.613c0.327-0.346,0.684-0.725,1.067-1.152c0.384-0.424,0.763-0.832,1.141-1.227
		c0.375-0.391,0.688-0.658,0.943-0.809c0.25-0.143,0.411-0.125,0.477,0.066c0.064,0.182-0.024,0.654-0.271,1.404
		c-0.18,0.572-0.502,1.146-0.965,1.729c-0.469,0.582-1,1.066-1.595,1.441c-0.596,0.387-1.229,0.615-1.896,0.689
		C36.036,53.096,35.4,52.918,34.796,52.475z"/>
	<path class="st0" d="M43.075,52.475c-0.062-0.262-0.112-0.623-0.145-1.08c-0.032-0.457-0.048-0.965-0.048-1.529
		c0-0.561,0.003-1.156,0.013-1.775c0.009-0.619,0.017-1.227,0.035-1.814c0.017-0.588,0.021-1.137,0.012-1.645
		c-0.009-0.502-0.03-0.922-0.06-1.248c-0.017-0.244-0.037-0.609-0.062-1.088c-0.026-0.484-0.051-1.027-0.087-1.627
		c-0.031-0.605-0.068-1.246-0.107-1.912c-0.041-0.67-0.071-1.309-0.086-1.926c-0.015-0.607-0.026-1.178-0.026-1.688
		c0-0.518,0.017-0.912,0.05-1.188c0.247-0.217,0.443-0.166,0.6,0.156c0.156,0.316,0.274,0.773,0.354,1.373
		c0.083,0.598,0.136,1.27,0.159,2.02c0.025,0.752,0.04,1.457,0.04,2.133c0,0.668-0.008,1.232-0.026,1.686
		c-0.013,0.461-0.022,0.697-0.022,0.711c0.084,1.541,0.136,3.053,0.159,4.545c0.023,1.5,0.102,3.004,0.234,4.523
		c0.162,0.309,0.249,0.643,0.258,0.992c0.009,0.354-0.043,0.633-0.148,0.846c-0.105,0.211-0.256,0.303-0.454,0.268
		C43.516,53.178,43.307,52.93,43.075,52.475z"/>
	<path class="st0" d="M68.927,52.647c-0.881-0.521-1.594-1.145-2.13-1.861c-0.54-0.723-1.007-1.48-1.401-2.279
		c-0.39-0.799-0.766-1.627-1.125-2.473c-0.356-0.854-0.798-1.666-1.322-2.453c-0.049-0.08-0.115-0.08-0.198,0
		c-0.326,0.59-0.598,1.203-0.818,1.85c-0.221,0.646-0.438,1.299-0.647,1.943c-0.216,0.664-0.449,1.307-0.699,1.939
		c-0.256,0.641-0.563,1.238-0.924,1.789c-0.159,0.227-0.403,0.436-0.72,0.615c-0.317,0.182-0.622,0.275-0.908,0.279
		c-0.286,0.012-0.509-0.096-0.672-0.316c-0.166-0.221-0.166-0.598,0-1.141c-0.442-1.227-0.819-2.396-1.129-3.518
		c-0.31-1.115-0.646-2.264-1.003-3.439c-0.1-0.297-0.247-0.635-0.44-1.018c-0.195-0.379-0.358-0.77-0.492-1.16
		c-0.131-0.395-0.187-0.775-0.168-1.141c0.015-0.367,0.187-0.67,0.513-0.92c0.127-0.094,0.308,0.09,0.539,0.564
		c0.227,0.475,0.481,1.092,0.76,1.859c0.278,0.77,0.554,1.623,0.833,2.562c0.277,0.939,0.54,1.824,0.781,2.66
		c0.246,0.826,0.456,1.537,0.625,2.127c0.172,0.592,0.283,0.93,0.331,1.01c0.343-0.232,0.651-0.605,0.932-1.129
		c0.278-0.523,0.536-1.115,0.772-1.777c0.235-0.658,0.458-1.346,0.66-2.057c0.207-0.709,0.409-1.361,0.601-1.959
		c0.197-0.602,0.395-1.092,0.588-1.498c0.197-0.396,0.407-0.615,0.624-0.645c0.226-0.035,0.465,0.15,0.724,0.562
		c0.261,0.41,0.557,1.121,0.884,2.127c0.455,1.457,1.048,2.83,1.776,4.131c0.728,1.299,1.678,2.438,2.855,3.416
		c0.39,0.23,0.701,0.186,0.929-0.119c0.233-0.312,0.391-0.785,0.489-1.41c0.101-0.631,0.139-1.369,0.112-2.201
		c-0.021-0.846-0.082-1.668-0.172-2.479c-0.09-0.807-0.204-1.543-0.343-2.207c-0.136-0.66-0.29-1.137-0.455-1.434
		c-0.161-0.244-0.304-0.41-0.439-0.5c-0.132-0.092-0.223-0.18-0.269-0.271c-0.047-0.084-0.037-0.207,0.039-0.367
		c0.069-0.154,0.24-0.416,0.5-0.797c0.294-0.207,0.578-0.148,0.847,0.201c0.272,0.34,0.514,0.857,0.734,1.543
		c0.218,0.686,0.409,1.492,0.563,2.424c0.16,0.93,0.261,1.877,0.307,2.842c0.05,0.963,0.043,1.889-0.026,2.781
		c-0.061,0.889-0.208,1.643-0.426,2.252c-0.219,0.611-0.528,1.041-0.919,1.275C70.003,53.069,69.516,53.01,68.927,52.647z"/>
	<path class="st0" d="M73.361,52.647c-0.032-0.033-0.072-0.1-0.124-0.195c-0.047-0.096-0.081-0.162-0.094-0.195
		c0.047-0.215,0.098-0.691,0.159-1.432c0.055-0.746,0.119-1.604,0.194-2.588c0.072-0.979,0.161-1.998,0.271-3.064
		c0.104-1.059,0.223-2.008,0.354-2.84c0.129-0.83,0.286-1.479,0.463-1.928c0.185-0.445,0.383-0.557,0.615-0.324
		c0.489,0.355,0.948,0.811,1.372,1.354c0.424,0.551,0.831,1.143,1.225,1.783c0.393,0.633,0.774,1.289,1.138,1.967
		c0.369,0.674,0.752,1.32,1.156,1.941c0.398,0.609,0.821,1.162,1.27,1.664c0.449,0.496,0.933,0.879,1.46,1.162h0.169
		c0.035-0.395,0.069-0.881,0.112-1.459c0.042-0.582,0.085-1.215,0.133-1.9c0.051-0.686,0.1-1.391,0.148-2.117
		c0.049-0.725,0.109-1.441,0.185-2.135c0.07-0.691,0.148-1.332,0.234-1.922c0.078-0.586,0.169-1.084,0.271-1.492
		c0.012-0.033,0.051-0.102,0.108-0.211c0.056-0.104,0.119-0.211,0.197-0.316c0.073-0.107,0.15-0.195,0.231-0.26
		c0.082-0.062,0.163-0.062,0.244,0l1.151,1.18c0.051,0.045,0.021,0.152-0.085,0.307c-0.104,0.154-0.233,0.324-0.38,0.516
		c-0.146,0.186-0.293,0.363-0.441,0.535c-0.146,0.172-0.23,0.297-0.245,0.383c-0.112,0.424-0.213,0.934-0.293,1.529
		c-0.084,0.598-0.148,1.23-0.197,1.91c-0.046,0.678-0.087,1.377-0.12,2.094c-0.036,0.721-0.061,1.42-0.084,2.096
		c-0.03,0.674-0.045,1.318-0.052,1.924c-0.009,0.604-0.021,1.125-0.033,1.566c-0.591-0.018-1.158-0.195-1.695-0.537
		c-0.538-0.344-1.056-0.797-1.556-1.359c-0.5-0.566-0.979-1.203-1.444-1.912c-0.466-0.709-0.913-1.43-1.348-2.154
		s-0.854-1.443-1.261-2.146c-0.409-0.703-0.802-1.32-1.177-1.863h-0.222c-0.062,0-0.12,0.178-0.158,0.531
		c-0.042,0.348-0.078,0.803-0.109,1.357c-0.035,0.557-0.066,1.189-0.101,1.898c-0.034,0.711-0.075,1.424-0.134,2.131
		c-0.059,0.715-0.125,1.391-0.209,2.035c-0.081,0.641-0.179,1.186-0.292,1.629c-0.115,0.439-0.254,0.75-0.417,0.93
		C73.787,52.901,73.59,52.873,73.361,52.647z"/>
	<path class="st0" d="M87.251,52.256c-0.032-0.098-0.058-0.434-0.07-0.992c-0.019-0.566-0.031-1.246-0.04-2.043
		c-0.008-0.805-0.004-1.676,0.013-2.615c0.018-0.939,0.039-1.822,0.061-2.643c0.024-0.828,0.057-1.543,0.099-2.146
		c0.043-0.604,0.084-0.99,0.134-1.148c0.098-0.051,0.205-0.051,0.317,0c0.115,0.049,0.218,0.111,0.309,0.195
		c0.089,0.078,0.168,0.178,0.233,0.295c0.063,0.109,0.102,0.211,0.102,0.289v10.809c0,0.178-0.054,0.316-0.15,0.404
		c-0.099,0.09-0.218,0.133-0.355,0.133c-0.139,0-0.27-0.043-0.393-0.133C87.387,52.573,87.301,52.434,87.251,52.256z"/>
	<path class="st10" d="M87.69,36.283c-0.015-0.051-0.025-0.117-0.034-0.203c-0.008-0.088-0.013-0.184-0.013-0.285
		c0-0.104,0.005-0.195,0.013-0.283c0.009-0.086,0.019-0.143,0.034-0.178c0.126-0.059,0.268-0.117,0.424-0.166
		c0.158-0.043,0.322-0.055,0.5-0.018c0.264,0.344,0.434,0.623,0.503,0.838c0.073,0.211,0.076,0.371,0.014,0.496
		c-0.062,0.115-0.171,0.186-0.318,0.211c-0.148,0.021-0.304,0.018-0.459-0.018c-0.159-0.029-0.303-0.078-0.435-0.15
		C87.78,36.459,87.706,36.373,87.69,36.283z"/>
	<path class="st0" d="M89.974,52.647c-0.034-0.033-0.073-0.1-0.125-0.195c-0.046-0.096-0.078-0.162-0.098-0.195
		c0.052-0.215,0.102-0.691,0.162-1.432c0.056-0.746,0.12-1.604,0.196-2.588c0.07-0.979,0.16-1.998,0.267-3.064
		c0.108-1.059,0.223-2.008,0.355-2.84c0.129-0.83,0.286-1.479,0.464-1.928c0.181-0.445,0.387-0.557,0.614-0.324
		c0.489,0.355,0.949,0.811,1.371,1.354c0.427,0.551,0.835,1.143,1.225,1.783c0.396,0.633,0.775,1.289,1.142,1.967
		c0.365,0.674,0.751,1.32,1.153,1.941c0.4,0.609,0.824,1.162,1.271,1.664c0.449,0.496,0.938,0.879,1.457,1.162H99.6
		c0.037-0.395,0.07-0.881,0.111-1.459c0.04-0.582,0.084-1.215,0.132-1.9c0.055-0.686,0.102-1.391,0.147-2.117
		c0.052-0.725,0.114-1.441,0.188-2.135c0.069-0.691,0.149-1.332,0.23-1.922c0.08-0.586,0.171-1.084,0.268-1.492
		c0.018-0.033,0.057-0.102,0.114-0.211c0.057-0.104,0.122-0.211,0.193-0.316c0.075-0.107,0.148-0.195,0.232-0.26
		c0.082-0.062,0.166-0.062,0.247,0l1.148,1.18c0.052,0.045,0.021,0.152-0.086,0.307c-0.103,0.154-0.231,0.324-0.376,0.516
		c-0.148,0.186-0.298,0.363-0.441,0.535c-0.147,0.172-0.229,0.297-0.245,0.383c-0.116,0.424-0.215,0.934-0.292,1.529
		c-0.084,0.598-0.151,1.23-0.197,1.91c-0.053,0.678-0.09,1.377-0.126,2.094c-0.032,0.721-0.058,1.42-0.082,2.096
		c-0.029,0.674-0.043,1.318-0.05,1.924c-0.008,0.604-0.022,1.125-0.038,1.566c-0.588-0.018-1.154-0.195-1.688-0.537
		c-0.544-0.344-1.06-0.797-1.559-1.359c-0.494-0.566-0.98-1.203-1.444-1.912c-0.466-0.709-0.917-1.43-1.349-2.154
		c-0.435-0.725-0.851-1.443-1.26-2.146s-0.802-1.32-1.181-1.863h-0.217c-0.064,0-0.12,0.178-0.162,0.531
		c-0.036,0.348-0.079,0.803-0.109,1.357c-0.03,0.557-0.063,1.189-0.1,1.898c-0.028,0.711-0.074,1.424-0.131,2.131
		c-0.062,0.715-0.127,1.391-0.211,2.035c-0.08,0.641-0.177,1.186-0.293,1.629c-0.115,0.439-0.252,0.75-0.416,0.93
		C90.396,52.901,90.203,52.873,89.974,52.647z"/>
	<path class="st0" d="M122.678,51.961c-0.066-0.254-0.113-0.6-0.143-1.043c-0.034-0.441-0.048-0.932-0.048-1.473
		c0-0.547,0-1.115,0.01-1.719c0.006-0.6,0.021-1.184,0.038-1.744c0.016-0.57,0.017-1.1,0.012-1.586
		c-0.009-0.49-0.028-0.891-0.06-1.207c-0.019-0.234-0.037-0.586-0.062-1.049c-0.021-0.471-0.051-0.994-0.081-1.576
		c-0.032-0.586-0.065-1.199-0.107-1.842c-0.034-0.648-0.065-1.27-0.082-1.859c-0.015-0.592-0.024-1.135-0.024-1.631
		c0-0.498,0.021-0.877,0.05-1.15c0.232-0.205,0.429-0.15,0.577,0.158c0.154,0.309,0.267,0.748,0.343,1.324
		c0.08,0.572,0.13,1.223,0.156,1.949c0.02,0.725,0.034,1.412,0.034,2.057c0,0.65-0.01,1.189-0.025,1.633
		c-0.012,0.441-0.023,0.67-0.023,0.686c0.077,1.482,0.132,2.941,0.153,4.383c0.025,1.443,0.103,2.896,0.229,4.363
		c0.154,0.301,0.235,0.617,0.244,0.961c0.011,0.334-0.034,0.609-0.145,0.811c-0.099,0.205-0.245,0.297-0.434,0.264
		C123.101,52.641,122.893,52.399,122.678,51.961z"/>
	<g>
		<g>
			<path class="st1" d="M134.782,48.485c-0.126,0.064-0.329,0.197-0.613,0.412c-0.285,0.213-0.627,0.471-1.021,0.77
				c-0.392,0.297-0.795,0.562-1.202,0.805c-0.409,0.23-0.812,0.402-1.206,0.494c-0.397,0.096-0.726,0.045-0.992-0.139
				c-0.363-0.256-0.641-0.516-0.827-0.781c-0.19-0.271-0.326-0.555-0.405-0.852c-0.074-0.299-0.118-0.619-0.118-0.957
				c0-0.336,0.02-0.715,0.053-1.127c0.012-0.348,0.127-0.637,0.338-0.875c0.215-0.232,0.465-0.465,0.768-0.695
				c0.299-0.232,0.617-0.473,0.947-0.719c0.33-0.256,0.632-0.566,0.897-0.936c0.262-0.369,0.479-0.824,0.64-1.359
				c0.157-0.535,0.204-1.191,0.14-1.965c-0.028-0.049-0.091-0.109-0.178-0.199c-0.084-0.09-0.176-0.178-0.273-0.273
				c-0.093-0.092-0.187-0.188-0.271-0.271c-0.083-0.082-0.155-0.143-0.202-0.176c-0.469-0.203-0.872-0.238-1.191-0.098
				c-0.322,0.143-0.603,0.389-0.827,0.734c-0.229,0.344-0.415,0.76-0.566,1.236c-0.155,0.482-0.273,0.961-0.379,1.436
				c-0.105,0.471-0.205,0.902-0.296,1.285c-0.095,0.389-0.197,0.66-0.307,0.818c-0.033,0.047-0.141,0.117-0.321,0.213
				c-0.177,0.098-0.317,0.141-0.411,0.141c-0.684,0.109-1.189,0.23-1.536,0.357c-0.352,0.125-0.57,0.25-0.65,0.361
				c-0.087,0.123-0.074,0.23,0.034,0.338c0.108,0.1,0.295,0.18,0.557,0.23c0.257,0.055,0.562,0.09,0.91,0.098
				c0.348,0.01,0.699-0.016,1.065-0.082c0.043,0.551,0.082,1.1,0.112,1.631c0.033,0.533,0.122,1.035,0.265,1.508
				c0.141,0.477,0.365,0.912,0.671,1.303c0.308,0.393,0.761,0.719,1.359,0.971c0.664,0.281,1.256,0.373,1.785,0.254
				c0.529-0.123,1.002-0.363,1.41-0.725c0.408-0.363,0.758-0.805,1.062-1.324c0.3-0.523,0.562-1.043,0.781-1.561
				C134.908,48.52,134.908,48.422,134.782,48.485z M128.896,44.014c0.045-0.234,0.074-0.391,0.092-0.469
				c0.206-0.727,0.436-1.291,0.686-1.691c0.254-0.404,0.495-0.68,0.723-0.82c0.226-0.141,0.427-0.17,0.592-0.082
				c0.166,0.086,0.246,0.262,0.246,0.512s-0.096,0.578-0.294,0.979c-0.199,0.406-0.529,0.842-1.002,1.312
				c-0.034,0.031-0.094,0.084-0.18,0.154c-0.086,0.072-0.177,0.145-0.271,0.213c-0.097,0.07-0.189,0.143-0.282,0.213
				c-0.099,0.07-0.168,0.123-0.218,0.16c-0.017,0.012-0.044,0.016-0.078,0.016c-0.041,0-0.065-0.004-0.086-0.016
				C128.823,44.405,128.848,44.256,128.896,44.014z"/>
		</g>
		<g>
			<path class="st7" d="M134.782,48.485c-0.126,0.064-0.329,0.197-0.613,0.412c-0.285,0.213-0.627,0.471-1.021,0.77
				c-0.392,0.297-0.795,0.562-1.202,0.805c-0.409,0.23-0.812,0.402-1.206,0.494c-0.397,0.096-0.726,0.045-0.992-0.139
				c-0.363-0.256-0.641-0.516-0.827-0.781c-0.19-0.271-0.326-0.555-0.405-0.852c-0.074-0.299-0.118-0.619-0.118-0.957
				c0-0.336,0.02-0.715,0.053-1.127c0.012-0.348,0.127-0.637,0.338-0.875c0.215-0.232,0.465-0.465,0.768-0.695
				c0.299-0.232,0.617-0.473,0.947-0.719c0.33-0.256,0.632-0.566,0.897-0.936c0.262-0.369,0.479-0.824,0.64-1.359
				c0.157-0.535,0.204-1.191,0.14-1.965c-0.028-0.049-0.091-0.109-0.178-0.199c-0.084-0.09-0.176-0.178-0.273-0.273
				c-0.093-0.092-0.187-0.188-0.271-0.271c-0.083-0.082-0.155-0.143-0.202-0.176c-0.469-0.203-0.872-0.238-1.191-0.098
				c-0.322,0.143-0.603,0.389-0.827,0.734c-0.229,0.344-0.415,0.76-0.566,1.236c-0.155,0.482-0.273,0.961-0.379,1.436
				c-0.105,0.471-0.205,0.902-0.296,1.285c-0.095,0.389-0.197,0.66-0.307,0.818c-0.033,0.047-0.141,0.117-0.321,0.213
				c-0.177,0.098-0.317,0.141-0.411,0.141c-0.684,0.109-1.189,0.23-1.536,0.357c-0.352,0.125-0.57,0.25-0.65,0.361
				c-0.087,0.123-0.074,0.23,0.034,0.338c0.108,0.1,0.295,0.18,0.557,0.23c0.257,0.055,0.562,0.09,0.91,0.098
				c0.348,0.01,0.699-0.016,1.065-0.082c0.043,0.551,0.082,1.1,0.112,1.631c0.033,0.533,0.122,1.035,0.265,1.508
				c0.141,0.477,0.365,0.912,0.671,1.303c0.308,0.393,0.761,0.719,1.359,0.971c0.664,0.281,1.256,0.373,1.785,0.254
				c0.529-0.123,1.002-0.363,1.41-0.725c0.408-0.363,0.758-0.805,1.062-1.324c0.3-0.523,0.562-1.043,0.781-1.561
				C134.908,48.52,134.908,48.422,134.782,48.485z M128.896,44.014c0.045-0.234,0.074-0.391,0.092-0.469
				c0.206-0.727,0.436-1.291,0.686-1.691c0.254-0.404,0.495-0.68,0.723-0.82c0.226-0.141,0.427-0.17,0.592-0.082
				c0.166,0.086,0.246,0.262,0.246,0.512s-0.096,0.578-0.294,0.979c-0.199,0.406-0.529,0.842-1.002,1.312
				c-0.034,0.031-0.094,0.084-0.18,0.154c-0.086,0.072-0.177,0.145-0.271,0.213c-0.097,0.07-0.189,0.143-0.282,0.213
				c-0.099,0.07-0.168,0.123-0.218,0.16c-0.017,0.012-0.044,0.016-0.078,0.016c-0.041,0-0.065-0.004-0.086-0.016
				C128.823,44.405,128.848,44.256,128.896,44.014z"/>
		</g>
	</g>
	<path class="st0" d="M145.397,51.393c0.098-2.932-0.022-5.291-0.365-7.08c-0.339-1.789-0.797-3.07-1.373-3.846
		c-0.578-0.771-1.209-1.07-1.902-0.898c-0.69,0.176-1.35,0.746-1.974,1.713c-0.625,0.973-1.159,2.297-1.604,3.986
		c-0.453,1.688-0.712,3.666-0.773,5.934c-0.065,0.191-0.16,0.281-0.283,0.273c-0.127-0.006-0.254-0.064-0.376-0.182
		c-0.127-0.107-0.24-0.24-0.332-0.41c-0.092-0.164-0.143-0.312-0.143-0.438c0-0.062,0.012-0.217,0.037-0.451
		c0.019-0.236,0.046-0.484,0.067-0.756c0.022-0.266,0.045-0.516,0.062-0.754c0.015-0.236,0.021-0.387,0.021-0.451
		c0-0.143,0.005-0.367,0.015-0.67c0.01-0.309,0.01-0.662,0.01-1.055c0-0.391,0-0.807,0-1.24s0-0.842,0-1.229
		c0-0.391,0-0.74-0.01-1.057c-0.01-0.311-0.015-0.547-0.015-0.703c0-0.086-0.009-0.25-0.021-0.516
		c-0.017-0.256-0.032-0.531-0.052-0.824c-0.013-0.289-0.031-0.574-0.059-0.85c-0.021-0.277-0.04-0.482-0.058-0.604
		c0-0.08-0.021-0.266-0.06-0.557c-0.037-0.289-0.075-0.605-0.12-0.945c-0.036-0.344-0.075-0.652-0.101-0.945
		c-0.033-0.295-0.056-0.475-0.072-0.562c-0.047-0.498,0.018-0.793,0.185-0.885c0.175-0.082,0.424,0.098,0.736,0.531
		c0.125,1.297,0.213,2.566,0.261,3.822c0.049,1.252,0.146,2.516,0.305,3.797c0.139-0.477,0.321-0.973,0.536-1.504
		c0.21-0.527,0.461-1.029,0.753-1.502s0.641-0.889,1.04-1.252c0.404-0.361,0.864-0.613,1.383-0.754
		c0.693-0.207,1.296-0.232,1.799-0.072c0.503,0.154,0.938,0.438,1.287,0.838c0.355,0.402,0.645,0.9,0.864,1.502
		c0.22,0.6,0.404,1.246,0.543,1.936c0.145,0.695,0.243,1.41,0.308,2.145c0.063,0.732,0.118,1.428,0.167,2.092
		c0.045,0.662,0.084,1.266,0.118,1.807c0.029,0.547,0.075,0.98,0.142,1.312c0.049,0.25,0.168,0.402,0.354,0.439
		c0.188,0.037,0.359,0.074,0.52,0.119c0.156,0.037,0.251,0.121,0.274,0.26c0.024,0.131-0.108,0.41-0.392,0.836
		c-0.112,0.16-0.264,0.277-0.458,0.357c-0.201,0.082-0.394,0.109-0.594,0.104c-0.198-0.008-0.365-0.078-0.498-0.213
		C145.42,51.864,145.365,51.662,145.397,51.393z"/>
	<path class="st9" d="M155.732,51.67c-0.634-0.354-1.125-0.725-1.479-1.088c-0.354-0.373-0.691-0.738-1.006-1.094
		c-0.312-0.355-0.676-0.695-1.086-1.018c-0.408-0.324-0.978-0.607-1.704-0.859c-0.108,0.311-0.197,0.686-0.259,1.111
		c-0.063,0.426-0.112,0.855-0.154,1.291c-0.037,0.43-0.068,0.836-0.097,1.227c-0.021,0.389-0.052,0.68-0.079,0.885
		c-0.209,0.254-0.403,0.363-0.591,0.328c-0.195-0.027-0.359-0.127-0.511-0.289c-0.152-0.172-0.275-0.365-0.374-0.596
		c-0.107-0.223-0.162-0.4-0.18-0.529c0.366-0.854,0.611-1.709,0.746-2.578c0.134-0.865,0.196-1.758,0.188-2.668
		c-0.009-0.918-0.062-1.865-0.155-2.838c-0.095-0.979-0.174-2.006-0.237-3.076c0.079-0.127,0.188-0.229,0.322-0.309
		c0.13-0.076,0.279-0.086,0.439-0.023c0.203-0.232,0.473-0.496,0.803-0.791c0.331-0.289,0.684-0.559,1.074-0.803
		c0.388-0.246,0.793-0.449,1.205-0.604c0.419-0.156,0.814-0.225,1.172-0.203c0.363,0.025,0.685,0.166,0.957,0.418
		c0.274,0.248,0.48,0.656,0.604,1.227c0.127,0.818,0.102,1.58-0.071,2.291c-0.173,0.715-0.447,1.387-0.838,2.023
		c-0.391,0.641-0.872,1.238-1.457,1.801c-0.582,0.555-1.23,1.098-1.936,1.615c-0.05,0.098-0.026,0.186,0.058,0.273
		c0.087,0.084,0.196,0.166,0.333,0.236c0.136,0.072,0.269,0.127,0.41,0.176c0.146,0.049,0.246,0.082,0.309,0.094
		c0.317,0.223,0.664,0.521,1.042,0.889c0.376,0.367,0.777,0.748,1.192,1.137c0.418,0.383,0.845,0.73,1.278,1.049
		c0.435,0.32,0.86,0.514,1.286,0.607c0.426,0.082,0.84,0.025,1.243-0.182c0.403-0.201,0.784-0.637,1.151-1.299h0.373
		c0.063,0.471-0.015,0.906-0.222,1.312c-0.216,0.404-0.513,0.711-0.899,0.932c-0.39,0.223-0.834,0.34-1.337,0.355
		C156.742,52.115,156.234,51.979,155.732,51.67z"/>
	<path class="st4" d="M150.269,43.899c0.016,0.062,0.029,0.174,0.046,0.338c0.016,0.168,0.038,0.344,0.058,0.525
		c0.024,0.178,0.043,0.354,0.063,0.506c0.011,0.16,0.02,0.268,0.02,0.332c0.68-0.266,1.271-0.689,1.778-1.254
		c0.5-0.566,0.912-1.178,1.227-1.834c0.315-0.652,0.523-1.309,0.626-1.959c0.101-0.654,0.1-1.195-0.013-1.623
		c-0.108-0.422-0.343-0.688-0.695-0.791c-0.354-0.102-0.835,0.061-1.436,0.486c-0.563,0.41-0.979,0.807-1.237,1.193
		c-0.26,0.389-0.434,0.791-0.519,1.205c-0.091,0.416-0.107,0.855-0.059,1.324C150.173,42.813,150.222,43.332,150.269,43.899z"/>
	<g>
		<g>
			<path class="st1" d="M168.621,48.485c-0.132,0.064-0.333,0.197-0.615,0.412c-0.281,0.213-0.626,0.471-1.019,0.77
				c-0.397,0.297-0.798,0.562-1.209,0.805c-0.407,0.23-0.809,0.402-1.201,0.494c-0.396,0.096-0.729,0.045-0.997-0.139
				c-0.36-0.256-0.641-0.516-0.829-0.781c-0.184-0.271-0.32-0.555-0.401-0.852c-0.075-0.299-0.117-0.619-0.117-0.957
				c0-0.336,0.018-0.715,0.045-1.127c0.022-0.348,0.136-0.637,0.344-0.875c0.215-0.232,0.47-0.465,0.77-0.695
				c0.298-0.232,0.617-0.473,0.946-0.719c0.333-0.256,0.63-0.566,0.897-0.936c0.269-0.369,0.48-0.824,0.644-1.359
				c0.153-0.535,0.202-1.191,0.139-1.965c-0.032-0.049-0.095-0.109-0.179-0.199c-0.083-0.09-0.177-0.178-0.269-0.273
				c-0.096-0.092-0.186-0.188-0.274-0.271c-0.086-0.082-0.153-0.143-0.199-0.176c-0.475-0.203-0.874-0.238-1.194-0.098
				c-0.324,0.143-0.604,0.389-0.83,0.734c-0.226,0.344-0.418,0.76-0.564,1.236c-0.152,0.482-0.274,0.961-0.382,1.436
				c-0.103,0.471-0.198,0.902-0.295,1.285c-0.094,0.389-0.194,0.66-0.304,0.818c-0.032,0.047-0.142,0.117-0.32,0.213
				c-0.184,0.098-0.323,0.141-0.415,0.141c-0.676,0.109-1.189,0.23-1.535,0.357c-0.35,0.125-0.564,0.25-0.649,0.361
				c-0.088,0.123-0.075,0.23,0.032,0.338c0.113,0.1,0.298,0.18,0.557,0.23c0.26,0.055,0.563,0.09,0.911,0.098
				c0.347,0.01,0.702-0.016,1.064-0.082c0.046,0.551,0.088,1.1,0.117,1.631c0.029,0.533,0.118,1.035,0.259,1.508
				c0.142,0.477,0.372,0.912,0.677,1.303c0.306,0.393,0.759,0.719,1.357,0.971c0.664,0.281,1.257,0.373,1.787,0.254
				c0.529-0.123,0.994-0.363,1.408-0.725c0.408-0.363,0.76-0.805,1.062-1.324c0.302-0.523,0.558-1.043,0.785-1.561
				C168.744,48.52,168.744,48.422,168.621,48.485z M162.731,44.014c0.046-0.234,0.078-0.391,0.096-0.469
				c0.205-0.727,0.428-1.291,0.685-1.691c0.253-0.404,0.494-0.68,0.719-0.82c0.229-0.141,0.429-0.17,0.593-0.082
				c0.163,0.086,0.25,0.262,0.25,0.512s-0.099,0.578-0.295,0.979c-0.196,0.406-0.532,0.842-1.004,1.312
				c-0.033,0.031-0.093,0.084-0.183,0.154c-0.08,0.072-0.173,0.145-0.269,0.213c-0.093,0.07-0.191,0.143-0.286,0.213
				c-0.096,0.07-0.161,0.123-0.208,0.16c-0.017,0.012-0.047,0.016-0.085,0.016c-0.037,0-0.066-0.004-0.083-0.016
				C162.658,44.405,162.684,44.256,162.731,44.014z"/>
		</g>
		<g>
			<path class="st7" d="M168.621,48.485c-0.132,0.064-0.333,0.197-0.615,0.412c-0.281,0.213-0.626,0.471-1.019,0.77
				c-0.397,0.297-0.798,0.562-1.209,0.805c-0.407,0.23-0.809,0.402-1.201,0.494c-0.396,0.096-0.729,0.045-0.997-0.139
				c-0.36-0.256-0.641-0.516-0.829-0.781c-0.184-0.271-0.32-0.555-0.401-0.852c-0.075-0.299-0.117-0.619-0.117-0.957
				c0-0.336,0.018-0.715,0.045-1.127c0.022-0.348,0.136-0.637,0.344-0.875c0.215-0.232,0.47-0.465,0.77-0.695
				c0.298-0.232,0.617-0.473,0.946-0.719c0.333-0.256,0.63-0.566,0.897-0.936c0.269-0.369,0.48-0.824,0.644-1.359
				c0.153-0.535,0.202-1.191,0.139-1.965c-0.032-0.049-0.095-0.109-0.179-0.199c-0.083-0.09-0.177-0.178-0.269-0.273
				c-0.096-0.092-0.186-0.188-0.274-0.271c-0.086-0.082-0.153-0.143-0.199-0.176c-0.475-0.203-0.874-0.238-1.194-0.098
				c-0.324,0.143-0.604,0.389-0.83,0.734c-0.226,0.344-0.418,0.76-0.564,1.236c-0.152,0.482-0.274,0.961-0.382,1.436
				c-0.103,0.471-0.198,0.902-0.295,1.285c-0.094,0.389-0.194,0.66-0.304,0.818c-0.032,0.047-0.142,0.117-0.32,0.213
				c-0.184,0.098-0.323,0.141-0.415,0.141c-0.676,0.109-1.189,0.23-1.535,0.357c-0.35,0.125-0.564,0.25-0.649,0.361
				c-0.088,0.123-0.075,0.23,0.032,0.338c0.113,0.1,0.298,0.18,0.557,0.23c0.26,0.055,0.563,0.09,0.911,0.098
				c0.347,0.01,0.702-0.016,1.064-0.082c0.046,0.551,0.088,1.1,0.117,1.631c0.029,0.533,0.118,1.035,0.259,1.508
				c0.142,0.477,0.372,0.912,0.677,1.303c0.306,0.393,0.759,0.719,1.357,0.971c0.664,0.281,1.257,0.373,1.787,0.254
				c0.529-0.123,0.994-0.363,1.408-0.725c0.408-0.363,0.76-0.805,1.062-1.324c0.302-0.523,0.558-1.043,0.785-1.561
				C168.744,48.52,168.744,48.422,168.621,48.485z M162.731,44.014c0.046-0.234,0.078-0.391,0.096-0.469
				c0.205-0.727,0.428-1.291,0.685-1.691c0.253-0.404,0.494-0.68,0.719-0.82c0.229-0.141,0.429-0.17,0.593-0.082
				c0.163,0.086,0.25,0.262,0.25,0.512s-0.099,0.578-0.295,0.979c-0.196,0.406-0.532,0.842-1.004,1.312
				c-0.033,0.031-0.093,0.084-0.183,0.154c-0.08,0.072-0.173,0.145-0.269,0.213c-0.093,0.07-0.191,0.143-0.286,0.213
				c-0.096,0.07-0.161,0.123-0.208,0.16c-0.017,0.012-0.047,0.016-0.085,0.016c-0.037,0-0.066-0.004-0.083-0.016
				C162.658,44.405,162.684,44.256,162.731,44.014z"/>
		</g>
	</g>
	<path class="st9" d="M177.108,51.67c-0.633-0.354-1.124-0.725-1.478-1.088c-0.358-0.373-0.691-0.738-1.009-1.094
		c-0.316-0.355-0.675-0.695-1.084-1.018c-0.408-0.324-0.978-0.607-1.703-0.859c-0.112,0.311-0.194,0.686-0.257,1.111
		c-0.065,0.426-0.122,0.855-0.159,1.291c-0.039,0.43-0.066,0.836-0.095,1.227c-0.021,0.389-0.052,0.68-0.079,0.885
		c-0.206,0.254-0.404,0.363-0.591,0.328c-0.188-0.027-0.359-0.127-0.511-0.289c-0.15-0.172-0.277-0.365-0.376-0.596
		c-0.109-0.223-0.165-0.4-0.179-0.529c0.357-0.854,0.61-1.709,0.743-2.578c0.136-0.865,0.2-1.758,0.192-2.668
		c-0.013-0.918-0.057-1.865-0.149-2.838c-0.099-0.979-0.177-2.006-0.24-3.076c0.073-0.127,0.185-0.229,0.318-0.309
		c0.128-0.076,0.278-0.086,0.435-0.023c0.207-0.232,0.478-0.496,0.807-0.791c0.333-0.289,0.688-0.559,1.074-0.803
		c0.387-0.246,0.793-0.449,1.204-0.604c0.416-0.156,0.811-0.225,1.176-0.203c0.357,0.025,0.677,0.166,0.953,0.418
		c0.276,0.248,0.481,0.656,0.604,1.227c0.126,0.818,0.103,1.58-0.069,2.291c-0.175,0.715-0.452,1.387-0.841,2.023
		c-0.388,0.641-0.87,1.238-1.453,1.801c-0.587,0.555-1.229,1.098-1.938,1.615c-0.047,0.098-0.026,0.186,0.056,0.273
		c0.087,0.084,0.199,0.166,0.334,0.236c0.131,0.072,0.278,0.127,0.412,0.176c0.146,0.049,0.248,0.082,0.31,0.094
		c0.315,0.223,0.662,0.521,1.042,0.889c0.377,0.367,0.772,0.748,1.192,1.137c0.413,0.383,0.839,0.73,1.272,1.049
		c0.437,0.32,0.866,0.514,1.294,0.607c0.425,0.082,0.837,0.025,1.237-0.182c0.401-0.201,0.784-0.637,1.154-1.299h0.372
		c0.066,0.471-0.013,0.906-0.223,1.312c-0.217,0.404-0.512,0.711-0.902,0.932c-0.387,0.223-0.833,0.34-1.331,0.355
		C178.115,52.115,177.608,51.979,177.108,51.67z"/>
	<path class="st4" d="M171.645,43.899c0.016,0.062,0.028,0.174,0.046,0.338c0.014,0.168,0.033,0.344,0.059,0.525
		c0.021,0.178,0.042,0.354,0.063,0.506c0.012,0.16,0.02,0.268,0.02,0.332c0.682-0.266,1.269-0.689,1.776-1.254
		c0.5-0.566,0.91-1.178,1.228-1.834c0.312-0.652,0.52-1.309,0.624-1.959c0.105-0.654,0.102-1.195-0.01-1.623
		c-0.112-0.422-0.345-0.688-0.698-0.791c-0.355-0.102-0.833,0.061-1.431,0.486c-0.565,0.41-0.981,0.807-1.245,1.193
		c-0.256,0.389-0.432,0.791-0.52,1.205c-0.08,0.416-0.104,0.855-0.053,1.324C171.551,42.813,171.599,43.332,171.645,43.899z"/>
	<path class="st0" d="M180.325,51.746c-0.034-0.094-0.059-0.41-0.073-0.957c-0.02-0.539-0.029-1.199-0.037-1.971
		c-0.01-0.771-0.006-1.615,0.012-2.521c0.021-0.908,0.035-1.754,0.058-2.553c0.028-0.797,0.059-1.484,0.095-2.072
		c0.044-0.578,0.086-0.951,0.137-1.109c0.091-0.047,0.193-0.047,0.308,0c0.105,0.049,0.207,0.113,0.291,0.188
		c0.086,0.08,0.162,0.176,0.228,0.283c0.063,0.113,0.094,0.205,0.094,0.289v10.424c0,0.172-0.049,0.305-0.142,0.393
		c-0.094,0.086-0.214,0.131-0.346,0.131c-0.13,0-0.259-0.045-0.377-0.131C180.453,52.051,180.371,51.918,180.325,51.746z"/>
	<path class="st9" d="M180.515,36.873c-0.021-0.045-0.029-0.115-0.041-0.201c-0.01-0.084-0.01-0.182-0.01-0.281
		c0-0.104,0-0.197,0.01-0.283c0.012-0.09,0.019-0.148,0.041-0.184c0.122-0.057,0.267-0.109,0.423-0.162
		c0.159-0.047,0.321-0.051,0.496-0.021c0.265,0.346,0.435,0.627,0.509,0.84c0.067,0.213,0.074,0.375,0.015,0.498
		c-0.069,0.113-0.176,0.189-0.325,0.211c-0.151,0.023-0.303,0.023-0.46-0.008c-0.161-0.037-0.301-0.09-0.438-0.156
		C180.6,37.051,180.527,36.973,180.515,36.873z"/>
	<path class="st0" d="M182.949,52.125c-0.036-0.033-0.07-0.098-0.12-0.191c-0.045-0.09-0.083-0.152-0.094-0.188
		c0.049-0.205,0.094-0.664,0.153-1.385c0.054-0.717,0.119-1.543,0.188-2.492c0.071-0.943,0.152-1.93,0.261-2.957
		c0.104-1.023,0.217-1.938,0.344-2.738c0.122-0.801,0.273-1.422,0.448-1.859c0.172-0.434,0.37-0.537,0.591-0.316
		c0.474,0.346,0.913,0.785,1.325,1.311c0.405,0.527,0.806,1.1,1.183,1.713c0.378,0.613,0.737,1.252,1.096,1.902
		c0.354,0.656,0.727,1.281,1.11,1.871c0.389,0.59,0.797,1.121,1.23,1.605c0.435,0.48,0.908,0.855,1.412,1.123h0.166
		c0.026-0.375,0.063-0.846,0.098-1.406c0.043-0.561,0.089-1.174,0.138-1.834s0.094-1.346,0.14-2.047
		c0.047-0.699,0.106-1.381,0.178-2.053c0.067-0.672,0.147-1.291,0.225-1.857c0.074-0.566,0.163-1.047,0.259-1.443
		c0.015-0.029,0.049-0.098,0.106-0.201c0.055-0.1,0.113-0.203,0.188-0.303c0.067-0.107,0.143-0.188,0.228-0.252
		c0.076-0.064,0.156-0.064,0.236,0l1.109,1.137c0.047,0.049,0.021,0.141-0.085,0.293c-0.104,0.152-0.224,0.32-0.361,0.5
		c-0.145,0.178-0.287,0.352-0.428,0.516c-0.142,0.168-0.225,0.293-0.235,0.371c-0.113,0.41-0.209,0.906-0.287,1.477
		c-0.078,0.572-0.143,1.189-0.188,1.844c-0.05,0.652-0.089,1.33-0.114,2.02c-0.036,0.695-0.063,1.369-0.09,2.02
		c-0.021,0.66-0.032,1.279-0.046,1.861c-0.009,0.582-0.022,1.082-0.035,1.506c-0.568-0.01-1.113-0.184-1.631-0.518
		c-0.519-0.326-1.021-0.768-1.502-1.311c-0.484-0.543-0.946-1.16-1.396-1.844c-0.454-0.682-0.886-1.377-1.3-2.078
		c-0.42-0.703-0.824-1.396-1.215-2.07c-0.4-0.68-0.776-1.279-1.138-1.799h-0.214c-0.064,0-0.117,0.17-0.154,0.51
		c-0.038,0.34-0.08,0.779-0.107,1.309c-0.032,0.533-0.063,1.15-0.092,1.836c-0.032,0.686-0.077,1.375-0.132,2.055
		c-0.059,0.686-0.123,1.344-0.199,1.969c-0.083,0.619-0.176,1.145-0.284,1.562c-0.113,0.432-0.244,0.729-0.407,0.902
		C183.351,52.369,183.167,52.344,182.949,52.125z"/>
	<g>
		<path class="st6" d="M111.163,48.711c-0.037-0.125-0.058-0.297-0.063-0.512c-0.006-0.213,0-0.451,0.021-0.711
			c0.019-0.264,0.04-0.537,0.069-0.828c0.024-0.285,0.057-0.566,0.088-0.838c0.032-0.273,0.052-0.527,0.066-0.762
			c0.015-0.236,0.012-0.43,0.001-0.586c-0.005-0.113-0.005-0.283-0.006-0.508c0.001-0.227,0.001-0.48,0-0.762
			c-0.001-0.285-0.004-0.582-0.008-0.895c-0.002-0.314-0.001-0.613,0.005-0.896c0.014-0.287,0.026-0.549,0.043-0.789
			c0.019-0.24,0.048-0.422,0.078-0.551c0.172-0.088,0.308-0.049,0.402,0.107c0.096,0.154,0.163,0.373,0.195,0.656
			c0.036,0.277,0.048,0.594,0.039,0.945c-0.012,0.35-0.026,0.682-0.05,0.992c-0.021,0.312-0.049,0.572-0.075,0.785
			c-0.026,0.211-0.041,0.322-0.041,0.33c0,0.717-0.013,1.422-0.05,2.117c-0.034,0.699-0.034,1.4,0.003,2.113
			c0.099,0.152,0.147,0.309,0.142,0.475c-0.005,0.164-0.047,0.293-0.134,0.383c-0.076,0.094-0.183,0.131-0.315,0.105
			S111.3,48.932,111.163,48.711z"/>
		<path class="st6" d="M106.999,44.024c0.137-0.039,0.322-0.062,0.557-0.068c0.234-0.008,0.491-0.002,0.779,0.014
			c0.29,0.018,0.587,0.037,0.907,0.064c0.313,0.025,0.621,0.051,0.918,0.082c0.299,0.029,0.577,0.049,0.836,0.059
			c0.257,0.012,0.471,0.008,0.638-0.004c0.126-0.006,0.311-0.006,0.557-0.008c0.248-0.002,0.524-0.004,0.836-0.008
			c0.311-0.004,0.634-0.008,0.976-0.018c0.344-0.002,0.672-0.004,0.984,0c0.312,0.01,0.598,0.021,0.861,0.039
			c0.263,0.016,0.462,0.043,0.604,0.07c0.099,0.172,0.061,0.309-0.107,0.404c-0.171,0.098-0.405,0.164-0.717,0.199
			c-0.303,0.039-0.647,0.055-1.032,0.049c-0.385-0.008-0.746-0.021-1.085-0.041c-0.343-0.021-0.63-0.045-0.86-0.07
			c-0.231-0.023-0.355-0.039-0.361-0.039c-0.787,0.008-1.558,0-2.318-0.033c-0.762-0.027-1.534-0.02-2.312,0.021
			c-0.165,0.1-0.334,0.148-0.516,0.145c-0.177-0.002-0.322-0.045-0.423-0.127c-0.104-0.08-0.146-0.186-0.119-0.318
			C106.622,44.303,106.759,44.164,106.999,44.024z"/>
	</g>
</g>
</svg>
