<?xml version="1.0" encoding="utf-8"?>
<!-- Generator: Adobe Illustrator 13.0.0, SVG Export Plug-In . SVG Version: 6.00 Build 14948)  -->
<!DOCTYPE svg PUBLIC "-//W3C//DTD SVG 1.1//EN" "http://www.w3.org/Graphics/SVG/1.1/DTD/svg11.dtd">
<svg version="1.1" id="Ebene_1" xmlns="http://www.w3.org/2000/svg" xmlns:xlink="http://www.w3.org/1999/xlink" x="0px" y="0px"
	 width="179.457px" height="54.938px" viewBox="0 0 179.457 54.938" style="enable-background:new 0 0 179.457 54.938;"
	 xml:space="preserve">
<style type="text/css">
<![CDATA[
	.st0{fill:#1A1817;stroke:#221E22;stroke-width:0.4;}
	.st1{fill:#1A1817;}
	.st2{fill:#EE7D26;stroke:#221E22;stroke-linecap:round;stroke-linejoin:round;}
	.st3{fill:#F67534;}
	.st4{fill:#1A1817;stroke:#221E22;stroke-width:0.25;}
	.st5{fill:none;stroke:#221E22;stroke-width:0.4;}
	.st6{fill:#221E22;stroke:#221E22;stroke-width:0.4;}
	.st7{fill:#221E22;stroke:#221E22;stroke-width:0.5;}
	.st8{fill:#221E22;stroke:#221E22;stroke-width:0.25;}
	.st9{fill:none;stroke:#221E22;stroke-width:0.25;}
]]>
</style>
<g>
	<path class="st4" d="M4.462,29.144c0.549-3.962,0.706-7.878,0.471-11.741C4.693,13.54,3.962,9.7,2.741,5.886
		c-0.126-0.324-0.126-0.597,0-0.823c0.125-0.224,0.298-0.354,0.524-0.391c0.223-0.035,0.448,0.037,0.672,0.226
		s0.397,0.519,0.522,0.989c0.35,2.044,0.642,4.095,0.881,6.154c0.235,2.056,0.5,4.131,0.804,6.225
		c0.622,0.499,1.276,0.61,1.962,0.336c0.684-0.272,1.376-0.771,2.074-1.495c0.696-0.726,1.378-1.588,2.038-2.598
		c0.659-1.011,1.284-1.99,1.871-2.938c0.584-0.945,1.109-1.796,1.57-2.539c0.46-0.748,0.843-1.224,1.14-1.423
		c0.549-0.397,0.825-0.43,0.825-0.095c0,0.337-0.188,0.88-0.562,1.628c-0.374,0.746-0.871,1.625-1.498,2.639
		c-0.622,1.01-1.274,1.992-1.96,2.953c-0.687,0.96-1.347,1.814-1.982,2.562c-0.637,0.747-1.142,1.244-1.517,1.496
		c-0.049,0.049-0.142,0.107-0.28,0.184c-0.136,0.076-0.28,0.163-0.429,0.264c-0.149,0.102-0.302,0.194-0.449,0.28
		c-0.151,0.088-0.248,0.146-0.3,0.168v0.298c0,0.027,0.087,0.096,0.265,0.208c0.174,0.11,0.379,0.241,0.616,0.394
		c0.235,0.147,0.481,0.301,0.729,0.451c0.249,0.146,0.45,0.272,0.6,0.373c0.472,0.25,1.053,0.585,1.738,1.008
		c0.685,0.427,1.421,0.867,2.207,1.329c0.787,0.46,1.593,0.903,2.431,1.329c0.833,0.424,1.662,0.771,2.486,1.046
		c0.822,0.272,1.601,0.435,2.337,0.481c0.736,0.056,1.381-0.07,1.944-0.371c0.56-0.299,1.014-0.81,1.363-1.529
		c0.348-0.727,0.538-1.723,0.563-2.993h0.747c0.124,0,0.224,0.174,0.299,0.521c0.075,0.351,0.106,0.78,0.094,1.291
		c-0.014,0.514-0.094,1.062-0.243,1.646c-0.149,0.587-0.399,1.124-0.748,1.604c-0.348,0.488-0.817,0.885-1.401,1.184
		c-0.588,0.293-1.317,0.411-2.188,0.333c-1.224-0.102-2.494-0.406-3.815-0.937c-1.321-0.521-2.629-1.138-3.925-1.852
		c-1.295-0.708-2.548-1.463-3.76-2.262c-1.209-0.799-2.311-1.51-3.309-2.133c-0.074-0.05-0.242-0.103-0.504-0.169
		c-0.262-0.058-0.418-0.102-0.468-0.128H6.439c-0.15,1.473-0.229,2.972-0.241,4.506c-0.015,1.533-0.183,3-0.507,4.396
		c-0.025,0.021-0.11,0.044-0.262,0.067c-0.151,0.023-0.305,0.035-0.469,0.02c-0.163-0.007-0.299-0.064-0.411-0.163
		C4.442,29.531,4.413,29.368,4.462,29.144z"/>
	<path class="st4" d="M27.988,28.68c-0.5-0.501-0.897-1.261-1.198-2.28c-0.299-1.021-0.501-2.183-0.616-3.479
		c-0.109-1.296-0.13-2.675-0.057-4.131c0.078-1.46,0.243-2.879,0.508-4.267c0.261-1.384,0.61-2.674,1.044-3.868
		c0.437-1.198,0.975-2.191,1.611-2.975c0.634-0.788,1.356-1.297,2.165-1.533c0.814-0.236,1.716-0.094,2.715,0.432
		c0.348,0.201,0.714,0.538,1.103,1.012c0.385,0.471,0.753,1,1.102,1.586c0.348,0.589,0.658,1.173,0.916,1.759
		c0.259,0.587,0.454,1.079,0.581,1.479c0.023,0.125,0.028,0.506,0.018,1.14c-0.013,0.636-0.033,1.406-0.055,2.302
		c-0.026,0.898-0.021,1.89,0.018,2.975c0.039,1.083,0.123,2.146,0.263,3.18c0.136,1.034,0.354,1.995,0.654,2.88
		c0.3,0.886,0.696,1.581,1.194,2.095c0.5,0.511,1.129,0.785,1.893,0.819c0.759,0.04,1.687-0.265,2.782-0.914
		c0.402-0.347,0.637-0.69,0.712-1.027c0.074-0.341,0.114-0.627,0.114-0.861c0-0.236,0.023-0.396,0.074-0.467
		c0.05-0.075,0.274-0.014,0.673,0.187c0.498,0.647,0.668,1.34,0.505,2.074c-0.164,0.735-0.524,1.384-1.084,1.944
		c-0.56,0.562-1.266,0.955-2.112,1.193c-0.848,0.237-1.716,0.184-2.603-0.166c-0.882-0.347-1.722-1.057-2.521-2.131
		c-0.798-1.072-1.435-2.631-1.908-4.674c-0.149,0.426-0.378,0.945-0.689,1.57c-0.313,0.624-0.681,1.244-1.104,1.87
		c-0.428,0.622-0.904,1.208-1.441,1.757c-0.536,0.553-1.092,0.96-1.666,1.23c-0.572,0.276-1.166,0.381-1.772,0.316
		C29.191,29.643,28.586,29.301,27.988,28.68z"/>
	<path class="st3" d="M28.326,26.325c0.422,0.895,0.921,1.381,1.495,1.458c0.574,0.071,1.16-0.152,1.758-0.677
		c0.598-0.521,1.188-1.281,1.777-2.281c0.586-0.994,1.085-2.125,1.494-3.382c0.413-1.26,0.724-2.584,0.938-3.966
		c0.208-1.384,0.246-2.712,0.109-3.981c-0.138-1.271-0.468-2.434-0.992-3.479c-0.521-1.046-1.32-1.87-2.393-2.468
		c-0.022-0.025-0.068-0.037-0.129-0.037c-0.062,0-0.119,0-0.167,0c-0.777,0.349-1.449,0.945-2.023,1.794
		c-0.57,0.847-1.065,1.843-1.473,2.993c-0.414,1.146-0.73,2.378-0.955,3.701c-0.225,1.322-0.352,2.616-0.373,3.889
		c-0.025,1.271,0.036,2.476,0.185,3.607C27.725,24.635,27.979,25.575,28.326,26.325z"/>
	<path class="st8" d="M58.207,29.055c-0.999-0.574-1.777-1.156-2.34-1.74c-0.557-0.587-1.091-1.163-1.589-1.723
		c-0.498-0.561-1.07-1.094-1.72-1.604c-0.647-0.516-1.545-0.971-2.692-1.366c-0.174,0.5-0.312,1.085-0.411,1.756
		c-0.098,0.675-0.182,1.354-0.243,2.04c-0.062,0.685-0.109,1.334-0.15,1.944c-0.036,0.608-0.082,1.077-0.129,1.402
		c-0.327,0.396-0.637,0.569-0.935,0.523c-0.301-0.059-0.569-0.209-0.807-0.47c-0.237-0.268-0.434-0.571-0.594-0.938
		c-0.164-0.361-0.261-0.64-0.283-0.836c0.572-1.352,0.964-2.708,1.175-4.078c0.212-1.372,0.312-2.779,0.302-4.229
		c-0.015-1.446-0.093-2.939-0.242-4.488c-0.151-1.544-0.274-3.164-0.375-4.86c0.122-0.199,0.29-0.362,0.504-0.486
		c0.214-0.125,0.443-0.137,0.69-0.04c0.327-0.373,0.75-0.792,1.274-1.252c0.522-0.462,1.089-0.883,1.703-1.27
		c0.611-0.387,1.244-0.705,1.904-0.955s1.28-0.354,1.853-0.317c0.573,0.037,1.079,0.257,1.512,0.653
		c0.437,0.401,0.758,1.048,0.957,1.944c0.199,1.297,0.161,2.505-0.112,3.629c-0.276,1.122-0.718,2.187-1.331,3.197
		c-0.61,1.008-1.374,1.955-2.296,2.841c-0.925,0.886-1.949,1.735-3.069,2.562c-0.075,0.15-0.044,0.293,0.092,0.433
		c0.137,0.136,0.312,0.263,0.526,0.371c0.212,0.111,0.426,0.205,0.656,0.282c0.222,0.076,0.385,0.122,0.485,0.15
		c0.499,0.347,1.046,0.813,1.644,1.403c0.598,0.586,1.229,1.185,1.889,1.795c0.661,0.607,1.335,1.163,2.02,1.662
		c0.686,0.499,1.368,0.813,2.04,0.953c0.673,0.137,1.33,0.042,1.961-0.276c0.637-0.326,1.242-1.011,1.815-2.061h0.597
		c0.102,0.749-0.018,1.44-0.354,2.076c-0.335,0.635-0.812,1.127-1.42,1.476c-0.611,0.346-1.316,0.536-2.114,0.562
		C59.803,29.751,59.005,29.522,58.207,29.055z"/>
	<path class="st3" d="M49.568,16.75c0.024,0.099,0.046,0.278,0.074,0.539c0.023,0.265,0.056,0.539,0.092,0.823
		c0.038,0.287,0.064,0.557,0.093,0.807c0.026,0.25,0.039,0.424,0.039,0.521c1.071-0.423,2.005-1.085,2.805-1.98
		c0.796-0.897,1.442-1.865,1.942-2.899c0.499-1.032,0.83-2.065,0.988-3.102c0.165-1.033,0.158-1.892-0.018-2.562
		c-0.171-0.675-0.54-1.092-1.102-1.253c-0.561-0.163-1.316,0.092-2.263,0.767c-0.896,0.646-1.553,1.276-1.961,1.891
		c-0.413,0.61-0.689,1.245-0.826,1.905c-0.135,0.663-0.167,1.358-0.092,2.098C49.419,15.036,49.493,15.852,49.568,16.75z"/>
	<path class="st4" d="M63.29,29.161c-0.049-0.147-0.086-0.648-0.111-1.511c-0.027-0.859-0.042-1.899-0.056-3.123
		c-0.011-1.22-0.005-2.55,0.018-3.982c0.026-1.436,0.058-2.778,0.098-4.038c0.036-1.258,0.084-2.351,0.146-3.272
		c0.065-0.921,0.134-1.508,0.207-1.757c0.149-0.076,0.313-0.076,0.484,0c0.176,0.073,0.329,0.174,0.468,0.301
		c0.135,0.124,0.255,0.275,0.355,0.448c0.102,0.176,0.151,0.324,0.151,0.449v16.488c0,0.275-0.074,0.479-0.224,0.619
		c-0.149,0.137-0.33,0.203-0.542,0.203c-0.211,0-0.411-0.066-0.597-0.203C63.499,29.643,63.364,29.44,63.29,29.161z"/>
	<path class="st8" d="M63.308,5.783c-0.03-0.092-0.057-0.225-0.069-0.396c-0.018-0.172-0.022-0.356-0.022-0.561
		s0.004-0.393,0.022-0.562c0.013-0.171,0.041-0.289,0.069-0.352c0.249-0.124,0.53-0.231,0.841-0.328
		c0.31-0.094,0.637-0.107,0.982-0.043c0.533,0.684,0.864,1.235,1.003,1.659c0.141,0.419,0.15,0.745,0.026,0.979
		c-0.131,0.232-0.34,0.374-0.636,0.42c-0.296,0.048-0.599,0.041-0.911-0.022c-0.309-0.062-0.601-0.165-0.864-0.306
		C63.484,6.136,63.338,5.972,63.308,5.783z"/>
	<path class="st4" d="M67.443,29.764c-0.052-0.051-0.112-0.152-0.189-0.302c-0.073-0.148-0.123-0.251-0.148-0.301
		c0.075-0.325,0.157-1.053,0.241-2.187c0.087-1.133,0.19-2.448,0.304-3.947c0.109-1.491,0.243-3.051,0.408-4.672
		c0.16-1.619,0.342-3.066,0.541-4.34c0.202-1.269,0.437-2.249,0.716-2.935c0.271-0.688,0.583-0.854,0.933-0.503
		c0.748,0.547,1.441,1.238,2.089,2.074c0.651,0.838,1.277,1.738,1.874,2.708c0.602,0.975,1.18,1.979,1.739,3.014
		c0.562,1.034,1.146,2.019,1.759,2.955c0.61,0.936,1.258,1.781,1.945,2.541c0.685,0.764,1.424,1.354,2.226,1.775h0.263
		c0.048-0.598,0.107-1.34,0.164-2.226c0.063-0.884,0.131-1.85,0.209-2.897c0.07-1.048,0.146-2.127,0.221-3.235
		c0.075-1.106,0.169-2.189,0.282-3.251c0.114-1.061,0.23-2.038,0.354-2.937c0.128-0.896,0.267-1.658,0.414-2.281
		c0.023-0.05,0.08-0.152,0.169-0.317c0.085-0.161,0.187-0.324,0.299-0.485c0.112-0.164,0.231-0.293,0.355-0.393
		c0.127-0.103,0.25-0.103,0.374,0l1.76,1.794c0.075,0.076,0.031,0.231-0.131,0.468c-0.165,0.239-0.352,0.501-0.579,0.785
		c-0.224,0.287-0.448,0.562-0.672,0.822c-0.227,0.262-0.35,0.457-0.376,0.58c-0.17,0.648-0.326,1.43-0.446,2.339
		c-0.127,0.913-0.227,1.88-0.304,2.917c-0.075,1.037-0.137,2.1-0.185,3.194c-0.05,1.102-0.093,2.162-0.133,3.196
		c-0.035,1.038-0.062,2.017-0.075,2.939c-0.007,0.92-0.032,1.718-0.055,2.394c-0.898-0.027-1.758-0.303-2.579-0.825
		c-0.824-0.521-1.615-1.217-2.376-2.077c-0.758-0.859-1.496-1.83-2.205-2.917c-0.713-1.083-1.396-2.181-2.059-3.291
		c-0.662-1.106-1.304-2.196-1.921-3.271c-0.626-1.071-1.226-2.021-1.798-2.841h-0.337c-0.102,0-0.181,0.269-0.246,0.805
		c-0.06,0.535-0.116,1.228-0.166,2.074c-0.048,0.847-0.098,1.812-0.152,2.896c-0.049,1.085-0.118,2.169-0.203,3.255
		c-0.088,1.085-0.196,2.121-0.318,3.104c-0.129,0.98-0.274,1.815-0.45,2.489c-0.172,0.673-0.385,1.144-0.634,1.415
		C68.091,30.151,67.793,30.109,67.443,29.764z"/>
	<path class="st4" d="M99.994,28.833c0-0.477,0.02-1.109,0.055-1.908c0.04-0.797,0.069-1.671,0.092-2.617
		c0.027-0.948,0.041-1.92,0.041-2.918c0-0.994-0.021-1.931-0.074-2.804c-0.049-0.874-0.133-1.631-0.248-2.282
		c-0.106-0.646-0.264-1.083-0.463-1.308c-1.567,0.122-2.767,0.107-3.594-0.041c-0.818-0.149-1.232-0.35-1.25-0.597
		c-0.011-0.251,0.407-0.519,1.25-0.805c0.852-0.285,2.165-0.491,3.932-0.618c0-0.298,0.008-0.826,0.021-1.589
		c0.014-0.76,0.018-1.563,0.018-2.413c0-0.847-0.004-1.646-0.018-2.393c-0.014-0.748-0.021-1.272-0.021-1.573
		c-0.021-0.173-0.062-0.41-0.109-0.708c-0.052-0.301-0.1-0.618-0.148-0.955c-0.053-0.336-0.092-0.676-0.113-1.01
		C99.339,1.96,99.348,1.681,99.4,1.454c0.049-0.301,0.181-0.506,0.393-0.617c0.21-0.111,0.428-0.162,0.652-0.15
		c0.225,0.015,0.433,0.087,0.619,0.226c0.188,0.136,0.281,0.314,0.281,0.54v11.183c0,0.25,0.307,0.368,0.937,0.354
		c0.622-0.014,1.379-0.065,2.278-0.166c0.896-0.102,0.146-0.058,1.146-0.243c0.979-0.11,1.813-0.222,2.524-0.168
		c0.709,0.051,1.188,0.217,1.438,0.506c0.246,0.285,0.102,0.776-0.45,1.477c-0.054,0.051-0.149,0.11-0.3,0.188
		c-0.146,0.068-0.251,0.108-0.298,0.108c-1.351-0.048-2.767-0.062-4.267-0.04c-1.496,0.026-1.215,0.143-2.562,0.34
		c-0.448,0.074-0.69,0.492-0.729,1.253c-0.037,0.761,0.023,1.688,0.187,2.786c0.164,1.098,0.353,2.263,0.562,3.497
		c0.213,1.232,0.342,2.361,0.39,3.383c0.057,1.021-0.054,1.854-0.313,2.486c-0.259,0.633-0.793,0.875-1.589,0.728
		c-0.048,0-0.108-0.033-0.187-0.108C100.029,28.945,99.994,28.881,99.994,28.833z"/>
	<path class="st4" d="M124.607,27.675c0.148-4.64-0.049-8.372-0.582-11.201c-0.537-2.829-1.258-4.855-2.168-6.077
		c-0.912-1.221-1.916-1.694-3.012-1.421c-1.097,0.276-2.14,1.177-3.121,2.713c-0.983,1.533-1.836,3.635-2.543,6.301
		c-0.711,2.667-1.117,5.798-1.22,9.388c-0.104,0.3-0.245,0.439-0.45,0.431c-0.197-0.013-0.396-0.108-0.597-0.283
		c-0.199-0.175-0.373-0.392-0.521-0.654c-0.15-0.263-0.229-0.489-0.229-0.691c0-0.099,0.021-0.335,0.062-0.707
		c0.035-0.375,0.074-0.778,0.107-1.199c0.039-0.425,0.064-0.824,0.09-1.194c0.027-0.373,0.04-0.61,0.04-0.713
		c0-0.224,0.009-0.579,0.024-1.064c0.012-0.486,0.015-1.043,0.015-1.665s0-1.276,0-1.964s0-1.331,0-1.946
		c0-0.608-0.003-1.164-0.015-1.663c-0.018-0.499-0.024-0.873-0.024-1.123c0-0.125-0.013-0.394-0.04-0.803
		c-0.023-0.411-0.045-0.85-0.068-1.309c-0.023-0.461-0.055-0.91-0.094-1.351c-0.035-0.434-0.068-0.755-0.098-0.953
		c0-0.125-0.027-0.418-0.096-0.878c-0.062-0.46-0.117-0.96-0.186-1.498c-0.059-0.534-0.115-1.031-0.17-1.494
		c-0.047-0.463-0.085-0.754-0.109-0.879c-0.071-0.799,0.023-1.265,0.303-1.4c0.271-0.139,0.656,0.142,1.152,0.839
		c0.201,2.046,0.34,4.059,0.414,6.04c0.074,1.979,0.238,3.98,0.485,6.003c0.226-0.749,0.506-1.541,0.843-2.375
		c0.336-0.833,0.735-1.625,1.197-2.375c0.458-0.748,1.01-1.407,1.643-1.98c0.64-0.571,1.367-0.974,2.188-1.197
		c1.097-0.324,2.049-0.362,2.84-0.111c0.8,0.251,1.479,0.69,2.038,1.328c0.564,0.637,1.018,1.426,1.368,2.374
		c0.349,0.948,0.639,1.972,0.856,3.067c0.229,1.099,0.39,2.227,0.486,3.385c0.104,1.159,0.188,2.264,0.266,3.31
		c0.07,1.048,0.138,2.001,0.187,2.864c0.054,0.857,0.123,1.549,0.228,2.075c0.072,0.396,0.262,0.628,0.558,0.689
		c0.302,0.063,0.571,0.126,0.823,0.188c0.248,0.062,0.396,0.195,0.432,0.409c0.041,0.213-0.168,0.651-0.618,1.327
		c-0.171,0.245-0.418,0.438-0.729,0.561s-0.625,0.181-0.936,0.165c-0.311-0.008-0.572-0.121-0.787-0.33
		C124.633,28.414,124.559,28.098,124.607,27.675z"/>
	<g>
		<g>
			<path class="st1" d="M144.309,23.073c-0.192,0.099-0.519,0.317-0.969,0.651c-0.445,0.339-0.982,0.747-1.605,1.219
				c-0.623,0.474-1.262,0.896-1.908,1.271s-1.285,0.636-1.904,0.787c-0.621,0.146-1.148,0.071-1.566-0.229
				c-0.582-0.396-1.018-0.807-1.314-1.232c-0.299-0.427-0.508-0.871-0.637-1.35c-0.123-0.471-0.186-0.978-0.186-1.516
				c0-0.534,0.024-1.125,0.073-1.773c0.026-0.55,0.203-1.01,0.543-1.386c0.341-0.375,0.743-0.743,1.22-1.103
				c0.471-0.362,0.971-0.74,1.49-1.144c0.525-0.396,0.998-0.891,1.43-1.479c0.416-0.585,0.758-1.3,1.002-2.15
				c0.254-0.846,0.322-1.881,0.228-3.104c-0.048-0.075-0.142-0.18-0.28-0.316c-0.143-0.137-0.281-0.283-0.432-0.43
				c-0.149-0.149-0.295-0.295-0.43-0.433c-0.135-0.137-0.244-0.229-0.32-0.278c-0.744-0.326-1.375-0.375-1.887-0.15
				s-0.949,0.61-1.312,1.159c-0.357,0.549-0.661,1.202-0.895,1.964c-0.239,0.759-0.438,1.514-0.604,2.26
				c-0.158,0.752-0.314,1.432-0.464,2.042s-0.312,1.044-0.483,1.289c-0.054,0.073-0.221,0.186-0.508,0.336
				c-0.289,0.149-0.504,0.224-0.652,0.224c-1.07,0.174-1.885,0.359-2.431,0.562c-0.552,0.201-0.896,0.393-1.032,0.581
				c-0.137,0.187-0.117,0.361,0.06,0.525c0.179,0.159,0.467,0.285,0.883,0.368c0.405,0.089,0.892,0.142,1.438,0.151
				c0.551,0.011,1.109-0.034,1.682-0.13c0.074,0.874,0.143,1.733,0.188,2.58c0.051,0.848,0.188,1.646,0.414,2.394
				c0.223,0.747,0.58,1.438,1.064,2.059c0.484,0.622,1.203,1.133,2.152,1.534c1.043,0.444,1.982,0.581,2.813,0.392
				c0.845-0.189,1.583-0.569,2.229-1.139c0.646-0.575,1.209-1.272,1.682-2.099c0.477-0.821,0.887-1.645,1.23-2.47
				C144.514,23.124,144.514,22.974,144.309,23.073z M135.006,16.007c0.066-0.375,0.122-0.627,0.143-0.75
				c0.326-1.148,0.691-2.038,1.088-2.672c0.402-0.64,0.779-1.066,1.14-1.292c0.365-0.226,0.679-0.27,0.938-0.131
				c0.264,0.137,0.395,0.406,0.395,0.804c0,0.4-0.154,0.916-0.469,1.552c-0.312,0.635-0.842,1.327-1.592,2.076
				c-0.051,0.05-0.146,0.129-0.28,0.241c-0.136,0.112-0.28,0.226-0.427,0.338c-0.146,0.11-0.299,0.224-0.453,0.334
				c-0.146,0.116-0.26,0.195-0.334,0.245c-0.021,0.022-0.064,0.041-0.133,0.041c-0.062,0-0.104-0.018-0.127-0.041
				C134.893,16.627,134.924,16.379,135.006,16.007z"/>
		</g>
		<g>
			<path class="st9" d="M144.309,23.073c-0.192,0.099-0.519,0.317-0.969,0.651c-0.445,0.339-0.982,0.747-1.605,1.219
				c-0.623,0.474-1.262,0.896-1.908,1.271s-1.285,0.636-1.904,0.787c-0.621,0.146-1.148,0.071-1.566-0.229
				c-0.582-0.396-1.018-0.807-1.314-1.232c-0.299-0.427-0.508-0.871-0.637-1.35c-0.123-0.471-0.186-0.978-0.186-1.516
				c0-0.534,0.024-1.125,0.073-1.773c0.026-0.55,0.203-1.01,0.543-1.386c0.341-0.375,0.743-0.743,1.22-1.103
				c0.471-0.362,0.971-0.74,1.49-1.144c0.525-0.396,0.998-0.891,1.43-1.479c0.416-0.585,0.758-1.3,1.002-2.15
				c0.254-0.846,0.322-1.881,0.228-3.104c-0.048-0.075-0.142-0.18-0.28-0.316c-0.143-0.137-0.281-0.283-0.432-0.43
				c-0.149-0.149-0.295-0.295-0.43-0.433c-0.135-0.137-0.244-0.229-0.32-0.278c-0.744-0.326-1.375-0.375-1.887-0.15
				s-0.949,0.61-1.312,1.159c-0.357,0.549-0.661,1.202-0.895,1.964c-0.239,0.759-0.438,1.514-0.604,2.26
				c-0.158,0.752-0.314,1.432-0.464,2.042s-0.312,1.044-0.483,1.289c-0.054,0.073-0.221,0.186-0.508,0.336
				c-0.289,0.149-0.504,0.224-0.652,0.224c-1.07,0.174-1.885,0.359-2.431,0.562c-0.552,0.201-0.896,0.393-1.032,0.581
				c-0.137,0.187-0.117,0.361,0.06,0.525c0.179,0.159,0.467,0.285,0.883,0.368c0.405,0.089,0.892,0.142,1.438,0.151
				c0.551,0.011,1.109-0.034,1.682-0.13c0.074,0.874,0.143,1.733,0.188,2.58c0.051,0.848,0.188,1.646,0.414,2.394
				c0.223,0.747,0.58,1.438,1.064,2.059c0.484,0.622,1.203,1.133,2.152,1.534c1.043,0.444,1.982,0.581,2.813,0.392
				c0.845-0.189,1.583-0.569,2.229-1.139c0.646-0.575,1.209-1.272,1.682-2.099c0.477-0.821,0.887-1.645,1.23-2.47
				C144.514,23.124,144.514,22.974,144.309,23.073z M135.006,16.007c0.066-0.375,0.122-0.627,0.143-0.75
				c0.326-1.148,0.691-2.038,1.088-2.672c0.402-0.64,0.779-1.066,1.14-1.292c0.365-0.226,0.679-0.27,0.938-0.131
				c0.264,0.137,0.395,0.406,0.395,0.804c0,0.4-0.154,0.916-0.469,1.552c-0.312,0.635-0.842,1.327-1.592,2.076
				c-0.051,0.05-0.146,0.129-0.28,0.241c-0.136,0.112-0.28,0.226-0.427,0.338c-0.146,0.11-0.299,0.224-0.453,0.334
				c-0.146,0.116-0.26,0.195-0.334,0.245c-0.021,0.022-0.064,0.041-0.133,0.041c-0.062,0-0.104-0.018-0.127-0.041
				C134.893,16.627,134.924,16.379,135.006,16.007z"/>
		</g>
	</g>
	<path class="st4" d="M145.809,28.234c-0.053-0.146-0.086-0.652-0.106-1.515c-0.024-0.861-0.045-1.901-0.062-3.123
		c-0.016-1.222-0.008-2.55,0.021-3.983c0.022-1.432,0.054-2.776,0.092-4.036c0.041-1.262,0.09-2.352,0.149-3.272
		c0.062-0.921,0.135-1.508,0.207-1.76c0.149-0.073,0.311-0.073,0.488,0c0.17,0.077,0.328,0.176,0.469,0.301
		c0.133,0.125,0.25,0.276,0.352,0.448c0.104,0.174,0.152,0.325,0.152,0.45v16.491c0,0.273-0.076,0.479-0.229,0.614
		c-0.152,0.141-0.33,0.205-0.539,0.205c-0.216,0-0.41-0.064-0.602-0.205C146.018,28.714,145.884,28.506,145.809,28.234z"/>
	<path class="st8" d="M145.68,4.925c-0.029-0.103-0.062-0.247-0.072-0.436c-0.021-0.188-0.029-0.394-0.029-0.616
		c0-0.224,0.011-0.433,0.029-0.617c0.016-0.189,0.043-0.317,0.072-0.387c0.277-0.138,0.584-0.26,0.928-0.36
		c0.342-0.104,0.701-0.122,1.078-0.051c0.586,0.755,0.948,1.362,1.105,1.825c0.158,0.463,0.163,0.819,0.027,1.077
		c-0.143,0.26-0.371,0.414-0.696,0.463c-0.325,0.055-0.66,0.046-0.999-0.022c-0.346-0.066-0.662-0.181-0.957-0.333
		C145.877,5.312,145.713,5.13,145.68,4.925z"/>
	<path class="st4" d="M155.643,29.316c-0.223-0.126-0.526-0.278-0.916-0.467c-0.388-0.184-0.791-0.403-1.217-0.651
		c-0.42-0.25-0.826-0.52-1.212-0.806c-0.389-0.287-0.705-0.596-0.957-0.936c-0.249-0.335-0.385-0.692-0.407-1.065
		c-0.021-0.372,0.108-0.761,0.407-1.158c0.052-0.052,0.224,0.081,0.505,0.395c0.288,0.312,0.655,0.684,1.105,1.123
		c0.449,0.435,0.96,0.884,1.529,1.344c0.58,0.462,1.162,0.812,1.764,1.049c0.597,0.232,1.197,0.311,1.791,0.228
		c0.602-0.092,1.148-0.459,1.652-1.107c0.194-0.272,0.338-0.592,0.426-0.954c0.091-0.361,0.119-0.728,0.099-1.104
		c-0.026-0.375-0.088-0.742-0.17-1.104c-0.09-0.362-0.205-0.69-0.354-0.992c-0.328-0.695-0.832-1.405-1.519-2.132
		c-0.683-0.726-1.42-1.459-2.203-2.207c-0.786-0.747-1.554-1.508-2.3-2.283c-0.75-0.77-1.333-1.556-1.759-2.354
		c-0.427-0.799-0.632-1.604-0.616-2.412c0.008-0.81,0.38-1.64,1.104-2.489c0.572-0.647,1.287-0.972,2.151-0.972
		c0.854,0,1.704,0.188,2.539,0.562c0.839,0.375,1.569,0.854,2.207,1.441c0.633,0.584,1.028,1.15,1.181,1.699
		c0.072,0.225,0.101,0.468,0.072,0.729c-0.025,0.263-0.102,0.479-0.227,0.655c-0.129,0.174-0.305,0.293-0.541,0.354
		c-0.238,0.063-0.545,0.021-0.914-0.13c-0.428-0.148-0.756-0.474-0.989-0.973c-0.241-0.5-0.493-0.99-0.756-1.478
		c-0.263-0.488-0.595-0.872-1.009-1.16c-0.412-0.286-1.017-0.306-1.812-0.06c-0.9,0.303-1.381,0.757-1.461,1.366
		c-0.066,0.612,0.109,1.312,0.546,2.094c0.433,0.785,1.034,1.607,1.798,2.469c0.758,0.861,1.534,1.678,2.32,2.447
		c0.781,0.778,1.484,1.471,2.109,2.078c0.623,0.609,1.006,1.057,1.158,1.329c0.297,0.572,0.564,1.289,0.807,2.148
		c0.234,0.859,0.312,1.701,0.238,2.522s-0.348,1.542-0.826,2.148c-0.471,0.613-1.271,0.953-2.391,1.024
		c-0.152,0.026-0.354,0.048-0.617,0.061c-0.258,0.014-0.531,0.021-0.805,0.021s-0.554-0.024-0.84-0.073
		C156.049,29.493,155.818,29.418,155.643,29.316z"/>
	<path class="st4" d="M169.52,29.316c-0.225-0.126-0.526-0.278-0.916-0.467c-0.391-0.184-0.793-0.403-1.217-0.651
		c-0.424-0.25-0.824-0.52-1.215-0.806c-0.387-0.286-0.703-0.596-0.955-0.936c-0.246-0.335-0.385-0.692-0.406-1.065
		c-0.025-0.372,0.11-0.761,0.406-1.158c0.051-0.052,0.223,0.081,0.508,0.395c0.291,0.312,0.654,0.684,1.104,1.123
		c0.444,0.435,0.96,0.884,1.532,1.344c0.57,0.462,1.158,0.812,1.762,1.049c0.594,0.232,1.195,0.311,1.794,0.228
		c0.597-0.092,1.146-0.459,1.646-1.107c0.196-0.272,0.346-0.592,0.424-0.954c0.095-0.361,0.121-0.728,0.101-1.104
		c-0.022-0.375-0.081-0.742-0.167-1.104c-0.088-0.362-0.206-0.69-0.354-0.992c-0.326-0.695-0.832-1.405-1.516-2.132
		c-0.688-0.726-1.422-1.459-2.207-2.207c-0.781-0.747-1.553-1.508-2.299-2.283c-0.751-0.77-1.336-1.556-1.761-2.354
		c-0.425-0.799-0.634-1.604-0.616-2.412c0.007-0.81,0.381-1.64,1.104-2.489c0.572-0.647,1.291-0.972,2.149-0.972
		s1.706,0.188,2.546,0.562c0.836,0.375,1.565,0.854,2.206,1.441c0.634,0.584,1.027,1.15,1.175,1.699
		c0.073,0.225,0.1,0.468,0.073,0.729c-0.022,0.263-0.104,0.479-0.226,0.655c-0.127,0.174-0.303,0.293-0.545,0.354
		c-0.234,0.063-0.541,0.021-0.912-0.13c-0.426-0.148-0.758-0.474-0.988-0.973c-0.236-0.5-0.492-0.99-0.752-1.478
		c-0.262-0.488-0.596-0.872-1.012-1.16c-0.408-0.286-1.019-0.306-1.811-0.06c-0.902,0.303-1.386,0.757-1.463,1.366
		c-0.072,0.612,0.107,1.312,0.545,2.094c0.438,0.784,1.031,1.607,1.799,2.469c0.756,0.861,1.534,1.678,2.316,2.447
		c0.786,0.778,1.486,1.471,2.109,2.078c0.623,0.609,1.012,1.057,1.164,1.329c0.295,0.572,0.562,1.289,0.801,2.148
		c0.236,0.859,0.314,1.701,0.24,2.522c-0.071,0.821-0.351,1.542-0.824,2.148c-0.471,0.613-1.268,0.953-2.389,1.024
		c-0.154,0.026-0.357,0.048-0.621,0.061c-0.264,0.014-0.525,0.021-0.802,0.021c-0.271,0-0.553-0.024-0.84-0.073
		C169.923,29.493,169.693,29.418,169.52,29.316z"/>
	<path class="st0" d="M20.489,53.936c-0.497-0.371-0.862-0.79-1.104-1.241c-0.239-0.447-0.395-0.929-0.473-1.433
		c-0.073-0.502-0.073-1.022,0-1.559c0.08-0.54,0.197-1.082,0.348-1.627c0.104-0.344,0.201-0.754,0.294-1.232
		c0.09-0.473,0.208-0.955,0.34-1.44c0.138-0.487,0.301-0.938,0.49-1.355c0.186-0.422,0.418-0.747,0.689-0.987
		c0.171-0.148,0.396-0.265,0.665-0.348c0.274-0.072,0.554-0.116,0.847-0.124c0.29-0.012,0.571,0,0.847,0.014
		c0.269,0.012,0.494,0.032,0.664,0.056c0.75,0.049,1.331,0.298,1.74,0.748c0.412,0.454,0.684,1.015,0.82,1.683
		c0.137,0.66,0.155,1.408,0.066,2.221c-0.099,0.826-0.282,1.631-0.566,2.426c-0.282,0.792-0.635,1.536-1.061,2.238
		c-0.429,0.696-0.892,1.271-1.398,1.701c-0.501,0.434-1.03,0.691-1.583,0.776C21.558,54.534,21.017,54.362,20.489,53.936z"/>
	<path class="st3" d="M20.869,52.526c0.43,0.346,0.888,0.423,1.383,0.237c0.496-0.193,0.97-0.538,1.421-1.056
		c0.453-0.512,0.855-1.13,1.215-1.852c0.357-0.729,0.613-1.454,0.769-2.181c0.152-0.723,0.176-1.396,0.071-2.02
		c-0.098-0.627-0.373-1.092-0.814-1.397c-0.632-0.423-1.229-0.561-1.792-0.396c-0.565,0.164-1.059,0.497-1.485,1.007
		c-0.424,0.496-0.779,1.127-1.062,1.876c-0.282,0.754-0.463,1.502-0.551,2.253c-0.084,0.756-0.063,1.446,0.067,2.101
		C20.219,51.747,20.478,52.225,20.869,52.526z"/>
	<path class="st0" d="M7.793,53.756c-0.441-0.34-0.858-0.861-1.243-1.556c-0.384-0.704-0.704-1.482-0.96-2.345
		c-0.254-0.869-0.436-1.766-0.538-2.704c-0.101-0.938-0.11-1.816-0.024-2.646s0.285-1.557,0.603-2.179
		c0.312-0.62,0.761-1.056,1.343-1.292c0.478-0.187,0.892-0.15,1.242,0.112c0.35,0.271,0.638,0.616,0.858,1.052
		c0.217,0.438,0.371,0.887,0.447,1.344c0.078,0.461,0.072,0.801-0.013,1.02c-0.086,0.21-0.25,0.227-0.498,0.046
		c-0.247-0.177-0.586-0.694-1.013-1.549c-0.188-0.394-0.389-0.521-0.601-0.396c-0.215,0.131-0.41,0.434-0.593,0.911
		c-0.18,0.474-0.321,1.071-0.435,1.806c-0.107,0.724-0.17,1.479-0.177,2.263c-0.009,0.784,0.054,1.551,0.177,2.293
		c0.13,0.738,0.347,1.368,0.654,1.896c0.307,0.518,0.72,0.877,1.241,1.067c0.52,0.201,1.166,0.146,1.933-0.162
		c0.152-0.068,0.401-0.281,0.741-0.64c0.342-0.361,0.715-0.757,1.115-1.204c0.401-0.441,0.797-0.871,1.191-1.282
		c0.392-0.405,0.719-0.686,0.985-0.843c0.262-0.15,0.43-0.132,0.498,0.068c0.067,0.187-0.025,0.683-0.283,1.467
		c-0.188,0.596-0.524,1.195-1.007,1.804c-0.491,0.607-1.045,1.115-1.667,1.509c-0.623,0.403-1.284,0.644-1.98,0.72
		C9.088,54.406,8.424,54.219,7.793,53.756z"/>
	<path class="st0" d="M16.441,53.756c-0.064-0.271-0.118-0.65-0.151-1.128c-0.033-0.478-0.051-1.007-0.051-1.595
		c0-0.59,0.004-1.211,0.014-1.855c0.01-0.646,0.018-1.282,0.037-1.895c0.017-0.615,0.021-1.189,0.013-1.721
		c-0.009-0.522-0.031-0.963-0.063-1.303c-0.017-0.257-0.038-0.638-0.064-1.137c-0.027-0.509-0.053-1.073-0.09-1.699
		c-0.032-0.633-0.071-1.303-0.112-1.999c-0.043-0.7-0.074-1.366-0.09-2.01c-0.016-0.638-0.027-1.231-0.027-1.768
		c0-0.539,0.018-0.95,0.052-1.237c0.258-0.229,0.463-0.177,0.627,0.16c0.162,0.331,0.286,0.811,0.369,1.437
		c0.087,0.624,0.143,1.326,0.166,2.11c0.027,0.782,0.042,1.521,0.042,2.227c0,0.7-0.009,1.288-0.027,1.762
		c-0.013,0.483-0.023,0.729-0.023,0.742c0.088,1.611,0.143,3.192,0.167,4.749c0.023,1.566,0.107,3.138,0.244,4.726
		c0.169,0.321,0.26,0.673,0.27,1.034c0.009,0.369-0.046,0.662-0.155,0.887c-0.11,0.219-0.267,0.314-0.474,0.278
		C16.902,54.491,16.683,54.231,16.441,53.756z"/>
	<path class="st0" d="M43.444,53.936c-0.92-0.543-1.664-1.193-2.225-1.941c-0.564-0.759-1.052-1.546-1.463-2.384
		c-0.407-0.832-0.8-1.697-1.175-2.582c-0.371-0.893-0.833-1.739-1.38-2.562c-0.052-0.082-0.122-0.082-0.208,0
		c-0.34,0.616-0.625,1.256-0.854,1.932c-0.231,0.679-0.458,1.356-0.675,2.028c-0.226,0.696-0.47,1.366-0.731,2.026
		c-0.267,0.67-0.588,1.294-0.965,1.869c-0.166,0.235-0.422,0.454-0.752,0.643c-0.331,0.188-0.65,0.287-0.948,0.291
		c-0.299,0.012-0.532-0.103-0.703-0.329c-0.173-0.232-0.173-0.624,0-1.191c-0.461-1.28-0.855-2.504-1.18-3.676
		c-0.323-1.165-0.675-2.365-1.047-3.591c-0.104-0.311-0.258-0.666-0.459-1.065c-0.204-0.396-0.375-0.805-0.514-1.212
		c-0.137-0.413-0.196-0.809-0.176-1.189c0.016-0.383,0.195-0.698,0.536-0.961c0.132-0.101,0.322,0.095,0.563,0.59
		c0.237,0.497,0.502,1.142,0.792,1.938c0.292,0.808,0.58,1.696,0.871,2.68c0.29,0.979,0.564,1.902,0.816,2.776
		c0.257,0.863,0.477,1.605,0.652,2.223c0.18,0.62,0.296,0.972,0.346,1.058c0.358-0.242,0.681-0.636,0.974-1.182
		c0.29-0.546,0.56-1.165,0.806-1.855c0.246-0.688,0.479-1.405,0.69-2.146c0.216-0.74,0.427-1.424,0.627-2.048
		c0.206-0.629,0.413-1.143,0.614-1.563c0.206-0.413,0.425-0.643,0.652-0.674c0.236-0.036,0.486,0.156,0.757,0.587
		c0.272,0.43,0.582,1.172,0.922,2.222c0.476,1.522,1.096,2.957,1.856,4.315c0.76,1.355,1.753,2.546,2.982,3.566
		c0.407,0.239,0.732,0.195,0.971-0.124c0.243-0.325,0.408-0.818,0.511-1.473c0.105-0.66,0.144-1.431,0.117-2.301
		c-0.022-0.883-0.086-1.742-0.18-2.586c-0.094-0.849-0.213-1.613-0.358-2.31c-0.142-0.688-0.303-1.188-0.475-1.498
		c-0.168-0.253-0.317-0.428-0.459-0.521c-0.137-0.096-0.232-0.188-0.28-0.282c-0.049-0.089-0.039-0.217,0.04-0.386
		c0.072-0.16,0.252-0.434,0.522-0.83c0.307-0.217,0.604-0.156,0.885,0.21c0.284,0.354,0.538,0.895,0.767,1.611
		c0.228,0.717,0.428,1.559,0.588,2.53c0.167,0.973,0.273,1.961,0.321,2.971c0.052,1.005,0.044,1.975-0.027,2.901
		c-0.064,0.931-0.217,1.719-0.446,2.354c-0.228,0.64-0.55,1.087-0.959,1.332C44.569,54.377,44.061,54.316,43.444,53.936z"/>
	<path class="st0" d="M48.076,53.936c-0.033-0.033-0.075-0.104-0.13-0.202c-0.049-0.101-0.084-0.169-0.098-0.202
		c0.049-0.228,0.103-0.725,0.166-1.495c0.058-0.778,0.125-1.68,0.203-2.704c0.075-1.023,0.168-2.087,0.283-3.2
		c0.109-1.107,0.233-2.1,0.37-2.965c0.134-0.869,0.299-1.547,0.483-2.019c0.194-0.463,0.4-0.582,0.643-0.337
		c0.511,0.369,0.99,0.846,1.433,1.414c0.443,0.574,0.868,1.194,1.279,1.862c0.411,0.662,0.809,1.346,1.189,2.054
		c0.385,0.704,0.785,1.379,1.208,2.028c0.415,0.636,0.857,1.214,1.327,1.736c0.469,0.521,0.975,0.92,1.524,1.215h0.177
		c0.037-0.413,0.072-0.921,0.117-1.522c0.044-0.609,0.089-1.27,0.139-1.986c0.054-0.716,0.105-1.45,0.154-2.211
		c0.052-0.758,0.115-1.505,0.194-2.229c0.073-0.723,0.153-1.395,0.243-2.007c0.082-0.611,0.177-1.134,0.283-1.561
		c0.013-0.033,0.054-0.104,0.113-0.221c0.059-0.11,0.125-0.221,0.207-0.331c0.077-0.112,0.156-0.202,0.241-0.271
		c0.085-0.062,0.17-0.062,0.254,0l1.203,1.232c0.053,0.049,0.021,0.159-0.089,0.321c-0.108,0.162-0.243,0.339-0.396,0.54
		c-0.152,0.192-0.306,0.379-0.461,0.558c-0.152,0.182-0.24,0.312-0.256,0.401c-0.117,0.441-0.222,0.975-0.306,1.597
		c-0.087,0.624-0.154,1.284-0.206,1.996c-0.048,0.706-0.091,1.438-0.125,2.185c-0.038,0.757-0.064,1.484-0.087,2.19
		c-0.033,0.705-0.047,1.379-0.055,2.011c-0.009,0.63-0.022,1.174-0.034,1.637c-0.618-0.02-1.21-0.204-1.771-0.562
		c-0.562-0.359-1.103-0.83-1.626-1.418c-0.522-0.592-1.022-1.256-1.508-1.996c-0.487-0.741-0.954-1.495-1.408-2.251
		c-0.454-0.755-0.892-1.509-1.317-2.241c-0.427-0.732-0.838-1.378-1.23-1.944h-0.231c-0.064,0-0.125,0.185-0.165,0.556
		c-0.044,0.361-0.083,0.837-0.114,1.417c-0.037,0.581-0.069,1.241-0.105,1.98c-0.037,0.741-0.079,1.488-0.141,2.227
		c-0.062,0.748-0.13,1.452-0.218,2.126c-0.085,0.67-0.188,1.238-0.306,1.701c-0.12,0.458-0.265,0.782-0.435,0.971
		S48.315,54.173,48.076,53.936z"/>
	<path class="st0" d="M62.585,53.529c-0.034-0.102-0.061-0.454-0.073-1.035c-0.02-0.594-0.033-1.304-0.042-2.137
		c-0.009-0.84-0.004-1.749,0.013-2.729c0.019-0.981,0.042-1.904,0.064-2.761c0.024-0.865,0.059-1.613,0.104-2.243
		s0.088-1.033,0.14-1.197c0.102-0.053,0.214-0.053,0.331,0c0.12,0.05,0.228,0.114,0.323,0.202c0.092,0.08,0.175,0.187,0.243,0.309
		c0.066,0.115,0.106,0.223,0.106,0.303v11.292c0,0.186-0.057,0.328-0.157,0.423c-0.102,0.092-0.228,0.139-0.371,0.139
		c-0.145,0-0.282-0.047-0.41-0.139C62.728,53.86,62.637,53.715,62.585,53.529z"/>
	<path class="st7" d="M63.043,36.845c-0.016-0.054-0.025-0.122-0.035-0.212c-0.008-0.093-0.014-0.195-0.014-0.299
		c0-0.11,0.005-0.205,0.014-0.295c0.01-0.092,0.02-0.148,0.035-0.188c0.132-0.062,0.28-0.123,0.443-0.175
		c0.165-0.044,0.336-0.057,0.522-0.019c0.276,0.357,0.454,0.648,0.526,0.875c0.075,0.223,0.079,0.39,0.014,0.518
		c-0.065,0.12-0.178,0.194-0.332,0.221c-0.155,0.022-0.318,0.021-0.479-0.016c-0.167-0.032-0.317-0.085-0.455-0.159
		C63.138,37.028,63.061,36.938,63.043,36.845z"/>
	<path class="st0" d="M65.43,53.936c-0.036-0.033-0.077-0.104-0.131-0.202c-0.047-0.101-0.081-0.169-0.102-0.202
		c0.055-0.228,0.107-0.725,0.169-1.495c0.059-0.778,0.126-1.68,0.205-2.704c0.074-1.023,0.168-2.087,0.279-3.2
		c0.113-1.107,0.233-2.1,0.37-2.965c0.134-0.869,0.3-1.547,0.486-2.019c0.188-0.463,0.403-0.582,0.641-0.337
		c0.511,0.369,0.991,0.846,1.432,1.414c0.447,0.574,0.874,1.194,1.279,1.862c0.413,0.662,0.81,1.346,1.194,2.054
		c0.38,0.704,0.784,1.379,1.205,2.028c0.417,0.636,0.859,1.214,1.327,1.736c0.469,0.521,0.979,0.92,1.521,1.215h0.18
		c0.039-0.413,0.073-0.921,0.116-1.522c0.043-0.609,0.087-1.27,0.137-1.986c0.06-0.716,0.108-1.45,0.154-2.211
		c0.055-0.758,0.118-1.505,0.197-2.229c0.072-0.723,0.155-1.395,0.239-2.007c0.083-0.611,0.178-1.134,0.28-1.561
		c0.019-0.033,0.059-0.104,0.119-0.221c0.061-0.11,0.129-0.221,0.202-0.331c0.08-0.112,0.156-0.202,0.243-0.271
		c0.085-0.062,0.174-0.062,0.258,0l1.198,1.232c0.056,0.049,0.023,0.159-0.089,0.321c-0.106,0.162-0.241,0.339-0.392,0.54
		c-0.154,0.192-0.312,0.379-0.461,0.558c-0.153,0.182-0.239,0.312-0.256,0.401c-0.12,0.441-0.225,0.975-0.305,1.597
		c-0.088,0.624-0.157,1.284-0.206,1.996c-0.056,0.706-0.095,1.438-0.131,2.185c-0.035,0.757-0.062,1.484-0.086,2.19
		c-0.029,0.705-0.043,1.379-0.052,2.011c-0.007,0.63-0.022,1.174-0.039,1.637c-0.613-0.02-1.206-0.204-1.765-0.562
		c-0.566-0.359-1.106-0.83-1.627-1.418c-0.517-0.592-1.023-1.256-1.508-1.996c-0.488-0.741-0.959-1.495-1.41-2.251
		c-0.453-0.757-0.889-1.509-1.315-2.241c-0.428-0.732-0.837-1.378-1.235-1.944h-0.226c-0.067,0-0.125,0.185-0.169,0.556
		c-0.038,0.361-0.083,0.837-0.115,1.417c-0.03,0.581-0.065,1.241-0.104,1.98c-0.029,0.741-0.077,1.488-0.138,2.227
		c-0.063,0.748-0.132,1.452-0.22,2.126c-0.083,0.67-0.184,1.238-0.306,1.701c-0.121,0.458-0.263,0.782-0.435,0.971
		C65.871,54.203,65.669,54.173,65.43,53.936z"/>
	<path class="st0" d="M99.59,53.22c-0.068-0.265-0.117-0.626-0.148-1.089c-0.033-0.462-0.051-0.975-0.051-1.539
		c0-0.572,0-1.166,0.012-1.796c0.007-0.626,0.021-1.235,0.039-1.821c0.018-0.594,0.02-1.147,0.014-1.657
		c-0.01-0.51-0.027-0.931-0.062-1.262c-0.021-0.243-0.037-0.612-0.063-1.096c-0.021-0.489-0.056-1.037-0.086-1.646
		c-0.03-0.61-0.063-1.252-0.111-1.927c-0.032-0.674-0.065-1.326-0.086-1.938c-0.014-0.617-0.022-1.187-0.022-1.702
		c0-0.521,0.021-0.917,0.054-1.202c0.241-0.215,0.446-0.156,0.603,0.167c0.161,0.318,0.28,0.779,0.358,1.38
		c0.083,0.598,0.136,1.28,0.163,2.038c0.021,0.757,0.035,1.473,0.035,2.146c0,0.681-0.01,1.242-0.026,1.706
		c-0.013,0.459-0.022,0.7-0.022,0.717c0.08,1.55,0.139,3.072,0.16,4.577c0.025,1.509,0.104,3.025,0.238,4.558
		c0.16,0.313,0.243,0.646,0.254,1.006c0.012,0.349-0.035,0.636-0.148,0.849c-0.104,0.212-0.258,0.311-0.455,0.274
		C100.033,53.93,99.814,53.677,99.59,53.22z"/>
	<g>
		<g>
			<path class="st1" d="M112.232,49.589c-0.131,0.067-0.342,0.204-0.642,0.429c-0.296,0.227-0.653,0.494-1.063,0.809
				c-0.41,0.31-0.83,0.586-1.256,0.841c-0.426,0.239-0.851,0.419-1.26,0.516c-0.416,0.103-0.76,0.048-1.037-0.146
				c-0.379-0.269-0.668-0.538-0.863-0.814c-0.199-0.283-0.34-0.58-0.424-0.891c-0.076-0.312-0.121-0.646-0.121-0.999
				c0-0.354,0.02-0.747,0.054-1.18c0.013-0.361,0.135-0.666,0.354-0.914c0.225-0.24,0.484-0.482,0.803-0.726
				c0.311-0.242,0.644-0.495,0.986-0.752c0.346-0.267,0.66-0.59,0.938-0.977c0.273-0.388,0.5-0.861,0.669-1.423
				c0.164-0.558,0.214-1.242,0.146-2.053c-0.031-0.05-0.098-0.111-0.187-0.206s-0.185-0.187-0.285-0.285
				c-0.099-0.096-0.196-0.196-0.285-0.283c-0.084-0.084-0.159-0.148-0.209-0.185c-0.489-0.212-0.911-0.248-1.243-0.102
				c-0.336,0.146-0.632,0.405-0.863,0.766c-0.24,0.359-0.436,0.795-0.592,1.29c-0.162,0.506-0.285,1.006-0.396,1.503
				c-0.106,0.489-0.215,0.941-0.31,1.34c-0.103,0.407-0.207,0.69-0.319,0.855c-0.035,0.05-0.146,0.122-0.336,0.223
				c-0.187,0.104-0.332,0.146-0.431,0.146c-0.713,0.112-1.244,0.238-1.604,0.373c-0.367,0.13-0.596,0.263-0.682,0.379
				c-0.092,0.128-0.075,0.236,0.035,0.354c0.113,0.104,0.311,0.188,0.582,0.238c0.271,0.059,0.588,0.095,0.951,0.103
				c0.363,0.014,0.73-0.017,1.112-0.085c0.044,0.574,0.085,1.148,0.116,1.704c0.033,0.558,0.129,1.081,0.277,1.572
				c0.146,0.5,0.381,0.955,0.699,1.362c0.321,0.411,0.797,0.752,1.419,1.016c0.694,0.293,1.312,0.389,1.864,0.265
				c0.555-0.129,1.047-0.38,1.475-0.759c0.426-0.377,0.793-0.838,1.107-1.38c0.312-0.548,0.586-1.09,0.814-1.631
				C112.366,49.625,112.366,49.525,112.232,49.589z M106.086,44.918c0.046-0.242,0.078-0.407,0.096-0.489
				c0.217-0.759,0.455-1.349,0.719-1.768c0.266-0.422,0.518-0.71,0.754-0.854c0.236-0.146,0.445-0.179,0.617-0.086
				c0.174,0.09,0.258,0.274,0.258,0.533c0,0.263-0.102,0.604-0.307,1.021c-0.207,0.427-0.553,0.883-1.047,1.372
				c-0.035,0.032-0.098,0.086-0.189,0.16c-0.088,0.074-0.184,0.15-0.28,0.224c-0.103,0.069-0.197,0.147-0.293,0.224
				c-0.104,0.07-0.179,0.129-0.229,0.167c-0.019,0.012-0.047,0.016-0.082,0.016c-0.043,0-0.065-0.004-0.09-0.016
				C106.01,45.325,106.035,45.171,106.086,44.918z"/>
		</g>
		<g>
			<path class="st5" d="M112.232,49.589c-0.131,0.067-0.342,0.204-0.642,0.429c-0.296,0.227-0.653,0.494-1.063,0.809
				c-0.41,0.31-0.83,0.586-1.256,0.841c-0.426,0.239-0.851,0.419-1.26,0.516c-0.416,0.103-0.76,0.048-1.037-0.146
				c-0.379-0.269-0.668-0.538-0.863-0.814c-0.199-0.283-0.34-0.58-0.424-0.891c-0.076-0.312-0.121-0.646-0.121-0.999
				c0-0.354,0.02-0.747,0.054-1.18c0.013-0.361,0.135-0.666,0.354-0.914c0.225-0.24,0.484-0.482,0.803-0.726
				c0.311-0.242,0.644-0.495,0.986-0.752c0.346-0.267,0.66-0.59,0.938-0.977c0.273-0.388,0.5-0.861,0.669-1.423
				c0.164-0.558,0.214-1.242,0.146-2.053c-0.031-0.05-0.098-0.111-0.187-0.206s-0.185-0.187-0.285-0.285
				c-0.099-0.096-0.196-0.196-0.285-0.283c-0.084-0.084-0.159-0.148-0.209-0.185c-0.489-0.212-0.911-0.248-1.243-0.102
				c-0.336,0.146-0.632,0.405-0.863,0.766c-0.24,0.359-0.436,0.795-0.592,1.29c-0.162,0.506-0.285,1.006-0.396,1.503
				c-0.106,0.489-0.215,0.941-0.31,1.34c-0.103,0.407-0.207,0.69-0.319,0.855c-0.035,0.05-0.146,0.122-0.336,0.223
				c-0.187,0.104-0.332,0.146-0.431,0.146c-0.713,0.112-1.244,0.238-1.604,0.373c-0.367,0.13-0.596,0.263-0.682,0.379
				c-0.092,0.128-0.075,0.236,0.035,0.354c0.113,0.104,0.311,0.188,0.582,0.238c0.271,0.059,0.588,0.095,0.951,0.103
				c0.363,0.014,0.73-0.017,1.112-0.085c0.044,0.574,0.085,1.148,0.116,1.704c0.033,0.558,0.129,1.081,0.277,1.572
				c0.146,0.5,0.381,0.955,0.699,1.362c0.321,0.411,0.797,0.752,1.419,1.016c0.694,0.293,1.312,0.389,1.864,0.265
				c0.555-0.129,1.047-0.38,1.475-0.759c0.426-0.377,0.793-0.838,1.107-1.38c0.312-0.548,0.586-1.09,0.814-1.631
				C112.366,49.625,112.366,49.525,112.232,49.589z M106.086,44.918c0.046-0.242,0.078-0.407,0.096-0.489
				c0.217-0.759,0.455-1.349,0.719-1.768c0.266-0.422,0.518-0.71,0.754-0.854c0.236-0.146,0.445-0.179,0.617-0.086
				c0.174,0.09,0.258,0.274,0.258,0.533c0,0.263-0.102,0.604-0.307,1.021c-0.207,0.427-0.553,0.883-1.047,1.372
				c-0.035,0.032-0.098,0.086-0.189,0.16c-0.088,0.074-0.184,0.15-0.28,0.224c-0.103,0.069-0.197,0.147-0.293,0.224
				c-0.104,0.07-0.179,0.129-0.229,0.167c-0.019,0.012-0.047,0.016-0.082,0.016c-0.043,0-0.065-0.004-0.09-0.016
				C106.01,45.325,106.035,45.171,106.086,44.918z"/>
		</g>
	</g>
	<path class="st0" d="M123.322,52.626c0.104-3.062-0.023-5.525-0.381-7.396c-0.354-1.87-0.834-3.206-1.437-4.017
		c-0.604-0.808-1.263-1.119-1.985-0.939c-0.723,0.187-1.41,0.778-2.062,1.79c-0.652,1.017-1.212,2.399-1.676,4.163
		c-0.475,1.764-0.745,3.829-0.811,6.199c-0.068,0.198-0.166,0.293-0.293,0.284c-0.134-0.006-0.268-0.066-0.396-0.19
		c-0.134-0.108-0.25-0.251-0.347-0.427c-0.098-0.171-0.148-0.327-0.148-0.46c0-0.064,0.014-0.228,0.039-0.47
		c0.02-0.246,0.048-0.505,0.068-0.79c0.022-0.279,0.047-0.538,0.063-0.788c0.017-0.245,0.021-0.403,0.021-0.47
		c0-0.15,0.006-0.388,0.018-0.702c0.013-0.321,0.013-0.69,0.013-1.104c0-0.407,0-0.841,0-1.294s0-0.879,0-1.284s0-0.771-0.013-1.104
		c-0.012-0.324-0.018-0.571-0.018-0.734c0-0.09-0.01-0.261-0.021-0.539c-0.019-0.267-0.033-0.554-0.054-0.858
		c-0.016-0.304-0.032-0.601-0.062-0.892c-0.021-0.288-0.041-0.501-0.06-0.63c0-0.084-0.022-0.277-0.063-0.581
		c-0.039-0.302-0.078-0.63-0.127-0.985c-0.037-0.359-0.078-0.683-0.104-0.987c-0.033-0.311-0.061-0.497-0.075-0.588
		c-0.05-0.521,0.019-0.828,0.192-0.923c0.183-0.086,0.442,0.103,0.77,0.554c0.131,1.354,0.223,2.681,0.271,3.994
		c0.052,1.307,0.151,2.627,0.319,3.965c0.146-0.5,0.334-1.02,0.56-1.571c0.22-0.55,0.481-1.075,0.785-1.566
		c0.307-0.494,0.67-0.931,1.09-1.311c0.42-0.377,0.899-0.64,1.443-0.788c0.723-0.215,1.354-0.241,1.879-0.074
		c0.524,0.16,0.979,0.457,1.344,0.875c0.371,0.423,0.674,0.938,0.902,1.568c0.229,0.628,0.422,1.304,0.565,2.022
		c0.151,0.727,0.256,1.475,0.321,2.239c0.064,0.766,0.123,1.492,0.174,2.187c0.049,0.69,0.09,1.322,0.125,1.888
		c0.029,0.571,0.076,1.025,0.146,1.37c0.053,0.263,0.176,0.421,0.371,0.459c0.195,0.039,0.375,0.079,0.541,0.125
		c0.165,0.038,0.264,0.126,0.287,0.271c0.025,0.139-0.113,0.43-0.408,0.875c-0.119,0.162-0.277,0.285-0.479,0.369
		c-0.211,0.088-0.41,0.114-0.62,0.11c-0.206-0.01-0.382-0.082-0.521-0.223C123.346,53.119,123.289,52.906,123.322,52.626z"/>
	<path class="st6" d="M134.118,52.917c-0.664-0.371-1.177-0.759-1.546-1.14c-0.371-0.39-0.721-0.771-1.051-1.144
		c-0.326-0.369-0.707-0.725-1.137-1.062c-0.425-0.34-1.021-0.637-1.777-0.897c-0.111,0.325-0.207,0.716-0.271,1.161
		c-0.064,0.441-0.115,0.894-0.161,1.347c-0.038,0.451-0.069,0.875-0.1,1.284c-0.022,0.405-0.056,0.71-0.084,0.925
		c-0.22,0.266-0.421,0.377-0.616,0.341c-0.205-0.026-0.377-0.133-0.535-0.301c-0.158-0.181-0.285-0.382-0.39-0.624
		c-0.111-0.23-0.171-0.417-0.188-0.552c0.383-0.895,0.639-1.785,0.78-2.692c0.138-0.902,0.203-1.838,0.196-2.786
		c-0.01-0.959-0.065-1.948-0.163-2.966c-0.099-1.021-0.183-2.095-0.247-3.214c0.083-0.132,0.195-0.238,0.336-0.321
		c0.137-0.079,0.292-0.092,0.459-0.021c0.212-0.243,0.495-0.521,0.839-0.827c0.345-0.303,0.715-0.585,1.122-0.838
		c0.402-0.259,0.828-0.47,1.26-0.632c0.436-0.163,0.85-0.235,1.225-0.211c0.377,0.022,0.717,0.173,0.998,0.436
		c0.287,0.259,0.5,0.686,0.631,1.281c0.136,0.854,0.107,1.647-0.072,2.394c-0.184,0.746-0.469,1.448-0.877,2.112
		c-0.408,0.671-0.91,1.292-1.521,1.882c-0.607,0.58-1.283,1.146-2.021,1.688c-0.053,0.103-0.025,0.192,0.062,0.284
		c0.092,0.087,0.207,0.174,0.348,0.246c0.143,0.074,0.281,0.134,0.43,0.187c0.15,0.05,0.258,0.084,0.322,0.096
		c0.332,0.235,0.693,0.544,1.089,0.93c0.394,0.385,0.812,0.779,1.246,1.189c0.437,0.396,0.881,0.76,1.334,1.093
		c0.454,0.335,0.897,0.538,1.343,0.635c0.443,0.088,0.878,0.025,1.299-0.188c0.422-0.211,0.819-0.666,1.201-1.358h0.391
		c0.065,0.494-0.017,0.947-0.23,1.371c-0.227,0.421-0.536,0.742-0.938,0.977c-0.408,0.23-0.871,0.354-1.396,0.369
		C135.173,53.382,134.643,53.24,134.118,52.917z"/>
	<path class="st3" d="M128.411,44.798c0.017,0.062,0.028,0.185,0.049,0.354c0.017,0.174,0.04,0.358,0.06,0.546
		c0.023,0.188,0.047,0.37,0.064,0.529c0.014,0.166,0.021,0.28,0.021,0.349c0.711-0.279,1.328-0.722,1.857-1.312
		c0.521-0.59,0.953-1.229,1.281-1.916c0.328-0.683,0.547-1.366,0.652-2.047c0.104-0.682,0.104-1.248-0.015-1.695
		c-0.112-0.438-0.356-0.718-0.726-0.826c-0.369-0.104-0.873,0.064-1.5,0.512c-0.59,0.429-1.021,0.843-1.293,1.243
		c-0.271,0.405-0.453,0.827-0.543,1.261c-0.094,0.433-0.11,0.895-0.059,1.384C128.312,43.664,128.361,44.206,128.411,44.798z"/>
	<g>
		<g>
			<path class="st1" d="M147.582,49.589c-0.141,0.067-0.35,0.204-0.643,0.429c-0.293,0.227-0.654,0.494-1.065,0.809
				c-0.415,0.31-0.833,0.586-1.265,0.841c-0.424,0.239-0.844,0.419-1.252,0.516c-0.414,0.103-0.765,0.048-1.043-0.146
				c-0.375-0.269-0.668-0.538-0.864-0.814c-0.193-0.283-0.334-0.58-0.419-0.891c-0.079-0.312-0.124-0.646-0.124-0.999
				c0-0.354,0.021-0.747,0.048-1.18c0.023-0.361,0.143-0.666,0.359-0.914c0.225-0.24,0.492-0.482,0.805-0.726
				s0.645-0.495,0.988-0.752c0.347-0.267,0.658-0.59,0.936-0.977c0.283-0.388,0.503-0.861,0.674-1.423
				c0.161-0.558,0.211-1.242,0.145-2.053c-0.03-0.05-0.098-0.111-0.188-0.206c-0.086-0.095-0.186-0.187-0.279-0.285
				c-0.1-0.096-0.193-0.196-0.285-0.283c-0.092-0.084-0.162-0.148-0.207-0.185c-0.498-0.212-0.914-0.248-1.25-0.102
				c-0.338,0.146-0.631,0.405-0.865,0.766c-0.234,0.359-0.438,0.795-0.59,1.29c-0.156,0.506-0.286,1.006-0.397,1.503
				c-0.108,0.489-0.206,0.941-0.308,1.34c-0.102,0.407-0.204,0.69-0.319,0.855c-0.03,0.05-0.146,0.122-0.334,0.223
				c-0.19,0.104-0.337,0.146-0.435,0.146c-0.704,0.112-1.24,0.238-1.604,0.373c-0.363,0.13-0.591,0.263-0.678,0.379
				c-0.092,0.128-0.078,0.236,0.033,0.354c0.119,0.104,0.312,0.188,0.582,0.238c0.271,0.059,0.588,0.095,0.951,0.103
				c0.361,0.014,0.731-0.017,1.109-0.085c0.049,0.574,0.094,1.148,0.123,1.704c0.029,0.558,0.123,1.081,0.271,1.572
				c0.147,0.5,0.389,0.955,0.707,1.362c0.32,0.411,0.791,0.752,1.418,1.016c0.692,0.293,1.312,0.389,1.865,0.265
				c0.553-0.129,1.039-0.38,1.471-0.759c0.427-0.377,0.796-0.838,1.111-1.38c0.314-0.548,0.584-1.09,0.817-1.631
				C147.709,49.625,147.709,49.525,147.582,49.589z M141.428,44.918c0.051-0.242,0.081-0.407,0.104-0.489
				c0.213-0.759,0.444-1.349,0.714-1.768c0.268-0.422,0.518-0.71,0.751-0.854c0.239-0.146,0.446-0.179,0.62-0.086
				c0.168,0.09,0.261,0.274,0.261,0.533c0,0.263-0.104,0.604-0.31,1.021c-0.205,0.427-0.555,0.883-1.049,1.372
				c-0.033,0.032-0.099,0.086-0.189,0.16c-0.084,0.074-0.182,0.15-0.28,0.224c-0.098,0.069-0.198,0.147-0.299,0.224
				c-0.103,0.07-0.17,0.129-0.219,0.167c-0.017,0.012-0.05,0.016-0.089,0.016s-0.069-0.004-0.088-0.016
				C141.354,45.325,141.379,45.171,141.428,44.918z"/>
		</g>
		<g>
			<path class="st5" d="M147.582,49.589c-0.141,0.067-0.35,0.204-0.643,0.429c-0.293,0.227-0.654,0.494-1.065,0.809
				c-0.415,0.31-0.833,0.586-1.265,0.841c-0.424,0.239-0.844,0.419-1.252,0.516c-0.414,0.103-0.765,0.048-1.043-0.146
				c-0.375-0.269-0.668-0.538-0.864-0.814c-0.193-0.283-0.334-0.58-0.419-0.891c-0.079-0.312-0.124-0.646-0.124-0.999
				c0-0.354,0.021-0.747,0.048-1.18c0.023-0.361,0.143-0.666,0.359-0.914c0.225-0.24,0.492-0.482,0.805-0.726
				s0.645-0.495,0.988-0.752c0.347-0.267,0.658-0.59,0.936-0.977c0.283-0.388,0.503-0.861,0.674-1.423
				c0.161-0.558,0.211-1.242,0.145-2.053c-0.03-0.05-0.098-0.111-0.188-0.206c-0.086-0.095-0.186-0.187-0.279-0.285
				c-0.1-0.096-0.193-0.196-0.285-0.283c-0.092-0.084-0.162-0.148-0.207-0.185c-0.498-0.212-0.914-0.248-1.25-0.102
				c-0.338,0.146-0.631,0.405-0.865,0.766c-0.234,0.359-0.438,0.795-0.59,1.29c-0.156,0.506-0.286,1.006-0.397,1.503
				c-0.108,0.489-0.206,0.941-0.308,1.34c-0.102,0.407-0.204,0.69-0.319,0.855c-0.03,0.05-0.146,0.122-0.334,0.223
				c-0.19,0.104-0.337,0.146-0.435,0.146c-0.704,0.112-1.24,0.238-1.604,0.373c-0.363,0.13-0.591,0.263-0.678,0.379
				c-0.092,0.128-0.078,0.236,0.033,0.354c0.119,0.104,0.312,0.188,0.582,0.238c0.271,0.059,0.588,0.095,0.951,0.103
				c0.361,0.014,0.731-0.017,1.109-0.085c0.049,0.574,0.094,1.148,0.123,1.704c0.029,0.558,0.123,1.081,0.271,1.572
				c0.147,0.5,0.389,0.955,0.707,1.362c0.32,0.411,0.791,0.752,1.418,1.016c0.692,0.293,1.312,0.389,1.865,0.265
				c0.553-0.129,1.039-0.38,1.471-0.759c0.427-0.377,0.796-0.838,1.111-1.38c0.314-0.548,0.584-1.09,0.817-1.631
				C147.709,49.625,147.709,49.525,147.582,49.589z M141.428,44.918c0.051-0.242,0.081-0.407,0.104-0.489
				c0.213-0.759,0.444-1.349,0.714-1.768c0.268-0.422,0.518-0.71,0.751-0.854c0.239-0.146,0.446-0.179,0.62-0.086
				c0.168,0.09,0.261,0.274,0.261,0.533c0,0.263-0.104,0.604-0.31,1.021c-0.205,0.427-0.555,0.883-1.049,1.372
				c-0.033,0.032-0.099,0.086-0.189,0.16c-0.084,0.074-0.182,0.15-0.28,0.224c-0.098,0.069-0.198,0.147-0.299,0.224
				c-0.103,0.07-0.17,0.129-0.219,0.167c-0.017,0.012-0.05,0.016-0.089,0.016s-0.069-0.004-0.088-0.016
				C141.354,45.325,141.379,45.171,141.428,44.918z"/>
		</g>
	</g>
	<path class="st6" d="M156.445,52.917c-0.661-0.371-1.174-0.759-1.545-1.14c-0.373-0.39-0.719-0.771-1.053-1.144
		c-0.33-0.369-0.705-0.725-1.133-1.062c-0.426-0.34-1.021-0.637-1.777-0.897c-0.117,0.325-0.203,0.716-0.271,1.161
		c-0.067,0.441-0.127,0.894-0.167,1.347c-0.04,0.451-0.066,0.875-0.1,1.284c-0.021,0.405-0.055,0.71-0.082,0.925
		c-0.217,0.266-0.424,0.377-0.617,0.341c-0.195-0.026-0.375-0.133-0.533-0.301c-0.154-0.181-0.289-0.382-0.395-0.624
		c-0.112-0.23-0.17-0.417-0.188-0.552c0.372-0.895,0.639-1.785,0.775-2.692c0.143-0.902,0.209-1.838,0.201-2.786
		c-0.016-0.959-0.061-1.948-0.156-2.966c-0.104-1.021-0.184-2.095-0.249-3.214c0.075-0.132,0.192-0.238,0.333-0.321
		c0.133-0.079,0.289-0.092,0.451-0.021c0.218-0.243,0.5-0.521,0.845-0.827c0.348-0.303,0.718-0.585,1.122-0.838
		c0.404-0.259,0.828-0.47,1.257-0.632c0.435-0.163,0.847-0.235,1.229-0.211c0.373,0.022,0.707,0.173,0.994,0.436
		c0.289,0.259,0.504,0.686,0.633,1.281c0.131,0.854,0.105,1.647-0.074,2.394c-0.184,0.746-0.471,1.448-0.877,2.112
		c-0.405,0.671-0.91,1.292-1.521,1.882c-0.612,0.58-1.282,1.146-2.024,1.688c-0.047,0.103-0.024,0.192,0.061,0.284
		c0.092,0.087,0.209,0.174,0.35,0.246c0.139,0.074,0.289,0.134,0.434,0.187c0.15,0.05,0.257,0.084,0.32,0.096
		c0.328,0.235,0.69,0.544,1.088,0.93c0.395,0.385,0.809,0.779,1.246,1.189c0.433,0.396,0.877,0.76,1.33,1.093
		c0.455,0.335,0.902,0.538,1.351,0.635c0.442,0.088,0.876,0.025,1.292-0.188c0.421-0.211,0.818-0.666,1.206-1.358h0.388
		c0.071,0.494-0.013,0.947-0.229,1.371c-0.229,0.421-0.535,0.742-0.942,0.977c-0.405,0.23-0.872,0.354-1.392,0.369
		C157.5,53.382,156.968,53.24,156.445,52.917z"/>
	<path class="st3" d="M150.738,44.798c0.018,0.062,0.029,0.185,0.05,0.354c0.015,0.174,0.035,0.358,0.062,0.546
		c0.023,0.188,0.045,0.37,0.064,0.529c0.014,0.166,0.021,0.28,0.021,0.349c0.713-0.279,1.326-0.722,1.854-1.312
		c0.521-0.59,0.95-1.229,1.282-1.916c0.324-0.683,0.543-1.366,0.65-2.047c0.109-0.682,0.104-1.248-0.011-1.695
		c-0.118-0.438-0.36-0.718-0.729-0.826c-0.369-0.104-0.869,0.064-1.492,0.512c-0.592,0.429-1.025,0.843-1.303,1.243
		c-0.27,0.405-0.453,0.827-0.543,1.261c-0.084,0.433-0.106,0.895-0.057,1.384C150.641,43.664,150.691,44.206,150.738,44.798z"/>
	<path class="st0" d="M159.807,52.997c-0.035-0.103-0.062-0.432-0.076-1.001c-0.021-0.562-0.028-1.254-0.037-2.061
		c-0.012-0.807-0.008-1.688,0.011-2.634c0.024-0.949,0.038-1.832,0.062-2.666c0.027-0.835,0.062-1.551,0.098-2.165
		c0.05-0.604,0.092-0.993,0.146-1.159c0.094-0.049,0.2-0.049,0.319,0c0.108,0.05,0.217,0.118,0.304,0.196
		c0.092,0.084,0.17,0.185,0.239,0.297c0.065,0.118,0.099,0.215,0.099,0.301v10.892c0,0.179-0.052,0.315-0.148,0.408
		c-0.098,0.092-0.223,0.138-0.36,0.138c-0.135,0-0.271-0.046-0.396-0.138C159.939,53.315,159.854,53.176,159.807,52.997z"/>
	<path class="st6" d="M160.005,37.459c-0.021-0.046-0.028-0.12-0.042-0.209c-0.011-0.088-0.011-0.19-0.011-0.295
		c0-0.107,0-0.204,0.011-0.295c0.014-0.096,0.02-0.154,0.042-0.192c0.127-0.06,0.279-0.114,0.44-0.168
		c0.168-0.051,0.336-0.053,0.519-0.022c0.277,0.361,0.457,0.654,0.533,0.878c0.069,0.224,0.077,0.395,0.017,0.521
		c-0.074,0.116-0.185,0.196-0.342,0.219c-0.156,0.024-0.316,0.024-0.479-0.006c-0.17-0.04-0.314-0.097-0.459-0.165
		C160.093,37.646,160.02,37.564,160.005,37.459z"/>
	<path class="st0" d="M162.548,53.393c-0.038-0.034-0.073-0.103-0.126-0.201c-0.046-0.094-0.086-0.156-0.1-0.192
		c0.054-0.218,0.1-0.694,0.162-1.448c0.055-0.751,0.123-1.611,0.195-2.604c0.072-0.981,0.158-2.017,0.271-3.088
		c0.108-1.067,0.229-2.022,0.358-2.859c0.127-0.837,0.285-1.484,0.469-1.942c0.181-0.453,0.387-0.562,0.617-0.328
		c0.494,0.36,0.953,0.82,1.385,1.368c0.424,0.552,0.843,1.149,1.234,1.789c0.396,0.64,0.771,1.309,1.146,1.988
		c0.367,0.684,0.76,1.338,1.158,1.954c0.406,0.612,0.832,1.172,1.285,1.675c0.453,0.504,0.949,0.896,1.476,1.174h0.173
		c0.025-0.392,0.064-0.883,0.104-1.467c0.045-0.588,0.095-1.229,0.146-1.918s0.099-1.406,0.146-2.137
		c0.047-0.729,0.109-1.442,0.187-2.146c0.067-0.702,0.151-1.348,0.233-1.938c0.078-0.595,0.168-1.097,0.271-1.508
		c0.019-0.031,0.054-0.104,0.113-0.213c0.056-0.104,0.114-0.212,0.194-0.312c0.068-0.112,0.148-0.197,0.236-0.267
		c0.08-0.064,0.163-0.064,0.247,0l1.157,1.189c0.05,0.05,0.023,0.146-0.088,0.305c-0.109,0.158-0.232,0.335-0.379,0.523
		c-0.148,0.185-0.299,0.366-0.444,0.538c-0.149,0.177-0.235,0.307-0.246,0.387c-0.116,0.43-0.219,0.947-0.3,1.545
		c-0.083,0.598-0.148,1.24-0.197,1.924c-0.051,0.684-0.093,1.392-0.117,2.112c-0.039,0.725-0.063,1.427-0.096,2.107
		c-0.021,0.689-0.031,1.337-0.048,1.943c-0.011,0.608-0.022,1.13-0.036,1.573c-0.596-0.01-1.163-0.19-1.705-0.542
		c-0.54-0.339-1.064-0.804-1.568-1.368c-0.504-0.567-0.985-1.212-1.457-1.926c-0.475-0.714-0.926-1.438-1.356-2.171
		c-0.438-0.736-0.858-1.458-1.271-2.162c-0.418-0.711-0.812-1.337-1.188-1.88h-0.226c-0.063,0-0.119,0.176-0.16,0.531
		c-0.039,0.355-0.082,0.812-0.108,1.366c-0.035,0.558-0.063,1.202-0.099,1.918c-0.032,0.72-0.08,1.438-0.139,2.146
		c-0.062,0.719-0.129,1.402-0.207,2.057c-0.086,0.647-0.185,1.197-0.297,1.631c-0.119,0.451-0.255,0.765-0.426,0.943
		C162.969,53.648,162.775,53.619,162.548,53.393z"/>
	<path class="st2" d="M94.566,46.378c-0.275-0.774-1.637-4.887-3.073-5.303c-1.438-0.412-2.028-0.766-3.055-0.656
		c-1.026,0.101-4.32,0.525-5.377,1.681c-1.061,1.155-1.117,2.564-1.117,2.564c0.041,1.909,1.008,2.999,1.539,3.786
		c0,0,2.146,2.272,4.822,2.604c2.673,0.333,4.018-0.306,4.941-1.502C94.167,48.365,94.837,47.159,94.566,46.378z"/>
	<path class="st1" d="M91.3,46.412c-0.144-0.063-0.292-0.023-0.444,0.12c-0.043,0.176-0.041,0.31,0.002,0.395
		c0.049,0.094,0.093,0.179,0.142,0.264c0.046,0.081,0.069,0.17,0.083,0.269c0.006,0.099-0.041,0.229-0.148,0.397
		c-0.211,0.335-0.433,0.562-0.658,0.677c-0.278,0.139-1.98-0.201-2.206-0.24c-0.225-0.041-0.838,0.068-1.059-0.098
		c-0.219-0.171-0.432-0.376-0.639-0.621c-0.205-0.243-0.398-0.508-0.579-0.798c-0.184-0.282-0.35-0.562-0.503-0.836
		c-0.151-0.274-0.282-0.526-0.396-0.763c-0.112-0.24-0.2-0.427-0.262-0.562c-0.029-0.023-0.093-0.064-0.201-0.12
		c-0.104-0.058-0.172-0.098-0.209-0.116c-0.012-0.004-0.033-0.016-0.062-0.033c-0.029-0.021-0.054-0.031-0.072-0.029
		c-0.009,0.07-0.011,0.151-0.015,0.236l0.813,2.312c-0.002-0.035,0.004-0.071,0.004-0.104l0.087-0.043
		c0.101,0.132,0.223,0.279,0.366,0.453c0.138,0.171,0.292,0.355,0.465,0.546c0.17,0.189,0.352,0.382,0.54,0.563
		s0.385,0.343,0.588,0.485c0.203,0.135,0.797,0.028,1.011,0.104c0.211,0.072,0.42,0.002,0.609,0.07
		c0.562,0.203,1.792,0.453,2.596-0.041c0.279-0.172,0.438-0.434,0.545-0.681c0.111-0.248,0.156-0.508,0.137-0.767
		c-0.02-0.263-0.077-0.486-0.172-0.673C91.561,46.6,91.441,46.475,91.3,46.412z"/>
</g>
</svg>
