<?xml version="1.0" encoding="utf-8"?>
<!-- Generator: Adobe Illustrator 13.0.0, SVG Export Plug-In . SVG Version: 6.00 Build 14948)  -->
<!DOCTYPE svg PUBLIC "-//W3C//DTD SVG 1.1//EN" "http://www.w3.org/Graphics/SVG/1.1/DTD/svg11.dtd">
<svg version="1.1" id="Ebene_1" xmlns="http://www.w3.org/2000/svg" xmlns:xlink="http://www.w3.org/1999/xlink" x="0px" y="0px"
	 width="17px" height="17px" viewBox="0 0 17 17" style="enable-background:new 0 0 17 17;" xml:space="preserve">
<style type="text/css">
<![CDATA[
	.st0{fill:#F67534;}
	.st1{fill:#FFFFFF;}
]]>
</style>
<path class="st0" d="M8.511,15.771c0,0-5.675-6.203-4.95-9.9c0.726-3.696,2.871-4.818,4.587-4.851s5.407,1.418,5.28,4.422
	C13.23,10.129,8.511,15.771,8.511,15.771z"/>
<circle class="st1" cx="8.479" cy="6.103" r="2.607"/>
<path d="M8.5,0.5C5.468,0.5,3,2.967,3,6c0,4.373,4.913,10.086,5.122,10.328L8.5,16.764l0.378-0.437C9.087,16.086,14,10.373,14,6
	C14,2.967,11.532,0.5,8.5,0.5z M8.5,15.215C7.354,13.791,4,9.336,4,6c0-2.481,2.019-4.5,4.5-4.5C10.98,1.5,13,3.519,13,6
	C13,9.333,9.646,13.791,8.5,15.215z M8.5,3.139c-1.654,0-3,1.346-3,3c0,1.654,1.346,3,3,3c1.654,0,3-1.346,3-3
	C11.5,4.485,10.154,3.139,8.5,3.139z M8.5,8.139c-1.103,0-2-0.897-2-2s0.897-2,2-2c1.104,0,2,0.897,2,2S9.604,8.139,8.5,8.139z"/>
</svg>
